M48
; DRILL file {KiCad (5.1.4)-1} date 01/29/20 15:42:16
; FORMAT={2:4/ absolute / inch / suppress leading zeros}
; #@! TF.CreationDate,2020-01-29T15:42:16+01:00
; #@! TF.GenerationSoftware,Kicad,Pcbnew,(5.1.4)-1
FMAT,2
INCH,TZ
T1C0.0079
T2C0.0315
%
G90
G05
T1
X46650Y-31900
X47200Y-32800
X47700Y-37500
X47968Y-35000
X48000Y-36500
X48050Y-30250
X48200Y-35450
X48200Y-36700
X48350Y-36300
X48350Y-37450
X48400Y-29950
X48450Y-38100
X48550Y-33750
X48600Y-35650
X48750Y-32400
X48750Y-34200
X48750Y-34600
X49100Y-35200
X49150Y-35550
X49300Y-38450
X49376Y-32116
X49400Y-38100
X49600Y-35350
X49800Y-35550
X49800Y-35841
X49850Y-34450
X50000Y-31350
X50000Y-37200
X50350Y-32500
X50350Y-33400
X50400Y-37200
X50550Y-31350
X50800Y-36500
X51000Y-35500
X51000Y-38450
X51150Y-31350
X51200Y-35850
X51200Y-36350
X51450Y-36550
X51450Y-37141
X51700Y-32450
X51700Y-33400
X51950Y-35350
X52100Y-34450
X52700Y-37800
X52750Y-38400
X52800Y-35600
X52950Y-35350
X53200Y-34250
X53200Y-34250
X53250Y-29700
X53250Y-30250
X53400Y-32200
X53400Y-32850
X53400Y-33850
X53450Y-38050
X53700Y-30250
X53800Y-34400
X54300Y-37350
X54550Y-30800
X54850Y-36600
X55300Y-33900
X55300Y-34600
X55350Y-31450
X55400Y-35900
X55650Y-34250
X55900Y-32700
X56000Y-33900
X56000Y-34600
T2
X47513Y-31200
X47513Y-31987
X48300Y-31200
X48300Y-31987
X46813Y-36100
X47600Y-36100
T0
M30
