G04 #@! TF.GenerationSoftware,KiCad,Pcbnew,(5.1.4)-1*
G04 #@! TF.CreationDate,2020-01-29T15:42:18+01:00*
G04 #@! TF.ProjectId,BLE-node,424c452d-6e6f-4646-952e-6b696361645f,rev?*
G04 #@! TF.SameCoordinates,Original*
G04 #@! TF.FileFunction,Legend,Bot*
G04 #@! TF.FilePolarity,Positive*
%FSLAX46Y46*%
G04 Gerber Fmt 4.6, Leading zero omitted, Abs format (unit mm)*
G04 Created by KiCad (PCBNEW (5.1.4)-1) date 2020-01-29 15:42:18*
%MOMM*%
%LPD*%
G04 APERTURE LIST*
%ADD10C,0.152400*%
G04 APERTURE END LIST*
D10*
X131978400Y-74942095D02*
X132365447Y-74942095D01*
X132365447Y-74129295D01*
X131397828Y-74903390D02*
X131475238Y-74942095D01*
X131630057Y-74942095D01*
X131707466Y-74903390D01*
X131746171Y-74825980D01*
X131746171Y-74516342D01*
X131707466Y-74438933D01*
X131630057Y-74400228D01*
X131475238Y-74400228D01*
X131397828Y-74438933D01*
X131359123Y-74516342D01*
X131359123Y-74593752D01*
X131746171Y-74671161D01*
X130894666Y-74942095D02*
X130972076Y-74903390D01*
X131010780Y-74864685D01*
X131049485Y-74787276D01*
X131049485Y-74555047D01*
X131010780Y-74477638D01*
X130972076Y-74438933D01*
X130894666Y-74400228D01*
X130778552Y-74400228D01*
X130701142Y-74438933D01*
X130662438Y-74477638D01*
X130623733Y-74555047D01*
X130623733Y-74787276D01*
X130662438Y-74864685D01*
X130701142Y-74903390D01*
X130778552Y-74942095D01*
X130894666Y-74942095D01*
X129385180Y-74516342D02*
X129269066Y-74555047D01*
X129230361Y-74593752D01*
X129191657Y-74671161D01*
X129191657Y-74787276D01*
X129230361Y-74864685D01*
X129269066Y-74903390D01*
X129346476Y-74942095D01*
X129656114Y-74942095D01*
X129656114Y-74129295D01*
X129385180Y-74129295D01*
X129307771Y-74168000D01*
X129269066Y-74206704D01*
X129230361Y-74284114D01*
X129230361Y-74361523D01*
X129269066Y-74438933D01*
X129307771Y-74477638D01*
X129385180Y-74516342D01*
X129656114Y-74516342D01*
X128843314Y-74942095D02*
X128843314Y-74400228D01*
X128843314Y-74129295D02*
X128882019Y-74168000D01*
X128843314Y-74206704D01*
X128804609Y-74168000D01*
X128843314Y-74129295D01*
X128843314Y-74206704D01*
X128494971Y-74903390D02*
X128417561Y-74942095D01*
X128262742Y-74942095D01*
X128185333Y-74903390D01*
X128146628Y-74825980D01*
X128146628Y-74787276D01*
X128185333Y-74709866D01*
X128262742Y-74671161D01*
X128378857Y-74671161D01*
X128456266Y-74632457D01*
X128494971Y-74555047D01*
X128494971Y-74516342D01*
X128456266Y-74438933D01*
X128378857Y-74400228D01*
X128262742Y-74400228D01*
X128185333Y-74438933D01*
X127798285Y-74400228D02*
X127798285Y-75213028D01*
X127798285Y-74438933D02*
X127720876Y-74400228D01*
X127566057Y-74400228D01*
X127488647Y-74438933D01*
X127449942Y-74477638D01*
X127411238Y-74555047D01*
X127411238Y-74787276D01*
X127449942Y-74864685D01*
X127488647Y-74903390D01*
X127566057Y-74942095D01*
X127720876Y-74942095D01*
X127798285Y-74903390D01*
X126946780Y-74942095D02*
X127024190Y-74903390D01*
X127062895Y-74864685D01*
X127101600Y-74787276D01*
X127101600Y-74555047D01*
X127062895Y-74477638D01*
X127024190Y-74438933D01*
X126946780Y-74400228D01*
X126830666Y-74400228D01*
X126753257Y-74438933D01*
X126714552Y-74477638D01*
X126675847Y-74555047D01*
X126675847Y-74787276D01*
X126714552Y-74864685D01*
X126753257Y-74903390D01*
X126830666Y-74942095D01*
X126946780Y-74942095D01*
X133236304Y-76313695D02*
X133507238Y-75926647D01*
X133700761Y-76313695D02*
X133700761Y-75500895D01*
X133391123Y-75500895D01*
X133313714Y-75539600D01*
X133275009Y-75578304D01*
X133236304Y-75655714D01*
X133236304Y-75771828D01*
X133275009Y-75849238D01*
X133313714Y-75887942D01*
X133391123Y-75926647D01*
X133700761Y-75926647D01*
X132578323Y-76274990D02*
X132655733Y-76313695D01*
X132810552Y-76313695D01*
X132887961Y-76274990D01*
X132926666Y-76197580D01*
X132926666Y-75887942D01*
X132887961Y-75810533D01*
X132810552Y-75771828D01*
X132655733Y-75771828D01*
X132578323Y-75810533D01*
X132539619Y-75887942D01*
X132539619Y-75965352D01*
X132926666Y-76042761D01*
X132268685Y-75771828D02*
X132075161Y-76313695D01*
X131881638Y-75771828D01*
X131417180Y-75500895D02*
X131339771Y-75500895D01*
X131262361Y-75539600D01*
X131223657Y-75578304D01*
X131184952Y-75655714D01*
X131146247Y-75810533D01*
X131146247Y-76004057D01*
X131184952Y-76158876D01*
X131223657Y-76236285D01*
X131262361Y-76274990D01*
X131339771Y-76313695D01*
X131417180Y-76313695D01*
X131494590Y-76274990D01*
X131533295Y-76236285D01*
X131572000Y-76158876D01*
X131610704Y-76004057D01*
X131610704Y-75810533D01*
X131572000Y-75655714D01*
X131533295Y-75578304D01*
X131494590Y-75539600D01*
X131417180Y-75500895D01*
X130991428Y-76391104D02*
X130372152Y-76391104D01*
X129946400Y-75500895D02*
X129946400Y-76081466D01*
X129985104Y-76197580D01*
X130062514Y-76274990D01*
X130178628Y-76313695D01*
X130256038Y-76313695D01*
X129211009Y-76313695D02*
X129211009Y-75887942D01*
X129249714Y-75810533D01*
X129327123Y-75771828D01*
X129481942Y-75771828D01*
X129559352Y-75810533D01*
X129211009Y-76274990D02*
X129288419Y-76313695D01*
X129481942Y-76313695D01*
X129559352Y-76274990D01*
X129598057Y-76197580D01*
X129598057Y-76120171D01*
X129559352Y-76042761D01*
X129481942Y-76004057D01*
X129288419Y-76004057D01*
X129211009Y-75965352D01*
X128823961Y-75771828D02*
X128823961Y-76313695D01*
X128823961Y-75849238D02*
X128785257Y-75810533D01*
X128707847Y-75771828D01*
X128591733Y-75771828D01*
X128514323Y-75810533D01*
X128475619Y-75887942D01*
X128475619Y-76313695D01*
X128127276Y-75578304D02*
X128088571Y-75539600D01*
X128011161Y-75500895D01*
X127817638Y-75500895D01*
X127740228Y-75539600D01*
X127701523Y-75578304D01*
X127662819Y-75655714D01*
X127662819Y-75733123D01*
X127701523Y-75849238D01*
X128165980Y-76313695D01*
X127662819Y-76313695D01*
X127159657Y-75500895D02*
X127082247Y-75500895D01*
X127004838Y-75539600D01*
X126966133Y-75578304D01*
X126927428Y-75655714D01*
X126888723Y-75810533D01*
X126888723Y-76004057D01*
X126927428Y-76158876D01*
X126966133Y-76236285D01*
X127004838Y-76274990D01*
X127082247Y-76313695D01*
X127159657Y-76313695D01*
X127237066Y-76274990D01*
X127275771Y-76236285D01*
X127314476Y-76158876D01*
X127353180Y-76004057D01*
X127353180Y-75810533D01*
X127314476Y-75655714D01*
X127275771Y-75578304D01*
X127237066Y-75539600D01*
X127159657Y-75500895D01*
X126579085Y-75578304D02*
X126540380Y-75539600D01*
X126462971Y-75500895D01*
X126269447Y-75500895D01*
X126192038Y-75539600D01*
X126153333Y-75578304D01*
X126114628Y-75655714D01*
X126114628Y-75733123D01*
X126153333Y-75849238D01*
X126617790Y-76313695D01*
X126114628Y-76313695D01*
X125611466Y-75500895D02*
X125534057Y-75500895D01*
X125456647Y-75539600D01*
X125417942Y-75578304D01*
X125379238Y-75655714D01*
X125340533Y-75810533D01*
X125340533Y-76004057D01*
X125379238Y-76158876D01*
X125417942Y-76236285D01*
X125456647Y-76274990D01*
X125534057Y-76313695D01*
X125611466Y-76313695D01*
X125688876Y-76274990D01*
X125727580Y-76236285D01*
X125766285Y-76158876D01*
X125804990Y-76004057D01*
X125804990Y-75810533D01*
X125766285Y-75655714D01*
X125727580Y-75578304D01*
X125688876Y-75539600D01*
X125611466Y-75500895D01*
X134087809Y-77143428D02*
X134087809Y-77801409D01*
X134126514Y-77878819D01*
X134165219Y-77917523D01*
X134242628Y-77956228D01*
X134358742Y-77956228D01*
X134436152Y-77917523D01*
X134087809Y-77646590D02*
X134165219Y-77685295D01*
X134320038Y-77685295D01*
X134397447Y-77646590D01*
X134436152Y-77607885D01*
X134474857Y-77530476D01*
X134474857Y-77298247D01*
X134436152Y-77220838D01*
X134397447Y-77182133D01*
X134320038Y-77143428D01*
X134165219Y-77143428D01*
X134087809Y-77182133D01*
X133700761Y-77685295D02*
X133700761Y-77143428D01*
X133700761Y-76872495D02*
X133739466Y-76911200D01*
X133700761Y-76949904D01*
X133662057Y-76911200D01*
X133700761Y-76872495D01*
X133700761Y-76949904D01*
X133429828Y-77143428D02*
X133120190Y-77143428D01*
X133313714Y-76872495D02*
X133313714Y-77569180D01*
X133275009Y-77646590D01*
X133197600Y-77685295D01*
X133120190Y-77685295D01*
X132849257Y-77685295D02*
X132849257Y-76872495D01*
X132500914Y-77685295D02*
X132500914Y-77259542D01*
X132539619Y-77182133D01*
X132617028Y-77143428D01*
X132733142Y-77143428D01*
X132810552Y-77182133D01*
X132849257Y-77220838D01*
X131765523Y-77143428D02*
X131765523Y-77685295D01*
X132113866Y-77143428D02*
X132113866Y-77569180D01*
X132075161Y-77646590D01*
X131997752Y-77685295D01*
X131881638Y-77685295D01*
X131804228Y-77646590D01*
X131765523Y-77607885D01*
X131378476Y-77685295D02*
X131378476Y-76872495D01*
X131378476Y-77182133D02*
X131301066Y-77143428D01*
X131146247Y-77143428D01*
X131068838Y-77182133D01*
X131030133Y-77220838D01*
X130991428Y-77298247D01*
X130991428Y-77530476D01*
X131030133Y-77607885D01*
X131068838Y-77646590D01*
X131146247Y-77685295D01*
X131301066Y-77685295D01*
X131378476Y-77646590D01*
X130643085Y-77607885D02*
X130604380Y-77646590D01*
X130643085Y-77685295D01*
X130681790Y-77646590D01*
X130643085Y-77607885D01*
X130643085Y-77685295D01*
X129907695Y-77646590D02*
X129985104Y-77685295D01*
X130139923Y-77685295D01*
X130217333Y-77646590D01*
X130256038Y-77607885D01*
X130294742Y-77530476D01*
X130294742Y-77298247D01*
X130256038Y-77220838D01*
X130217333Y-77182133D01*
X130139923Y-77143428D01*
X129985104Y-77143428D01*
X129907695Y-77182133D01*
X129443238Y-77685295D02*
X129520647Y-77646590D01*
X129559352Y-77607885D01*
X129598057Y-77530476D01*
X129598057Y-77298247D01*
X129559352Y-77220838D01*
X129520647Y-77182133D01*
X129443238Y-77143428D01*
X129327123Y-77143428D01*
X129249714Y-77182133D01*
X129211009Y-77220838D01*
X129172304Y-77298247D01*
X129172304Y-77530476D01*
X129211009Y-77607885D01*
X129249714Y-77646590D01*
X129327123Y-77685295D01*
X129443238Y-77685295D01*
X128823961Y-77685295D02*
X128823961Y-77143428D01*
X128823961Y-77220838D02*
X128785257Y-77182133D01*
X128707847Y-77143428D01*
X128591733Y-77143428D01*
X128514323Y-77182133D01*
X128475619Y-77259542D01*
X128475619Y-77685295D01*
X128475619Y-77259542D02*
X128436914Y-77182133D01*
X128359504Y-77143428D01*
X128243390Y-77143428D01*
X128165980Y-77182133D01*
X128127276Y-77259542D01*
X128127276Y-77685295D01*
X127159657Y-76833790D02*
X127856342Y-77878819D01*
X126772609Y-77685295D02*
X126850019Y-77646590D01*
X126888723Y-77569180D01*
X126888723Y-76872495D01*
X126114628Y-77685295D02*
X126114628Y-76872495D01*
X126114628Y-77646590D02*
X126192038Y-77685295D01*
X126346857Y-77685295D01*
X126424266Y-77646590D01*
X126462971Y-77607885D01*
X126501676Y-77530476D01*
X126501676Y-77298247D01*
X126462971Y-77220838D01*
X126424266Y-77182133D01*
X126346857Y-77143428D01*
X126192038Y-77143428D01*
X126114628Y-77182133D01*
X125379238Y-77685295D02*
X125379238Y-77259542D01*
X125417942Y-77182133D01*
X125495352Y-77143428D01*
X125650171Y-77143428D01*
X125727580Y-77182133D01*
X125379238Y-77646590D02*
X125456647Y-77685295D01*
X125650171Y-77685295D01*
X125727580Y-77646590D01*
X125766285Y-77569180D01*
X125766285Y-77491771D01*
X125727580Y-77414361D01*
X125650171Y-77375657D01*
X125456647Y-77375657D01*
X125379238Y-77336952D01*
X124992190Y-77685295D02*
X124992190Y-76872495D01*
X124992190Y-77182133D02*
X124914780Y-77143428D01*
X124759961Y-77143428D01*
X124682552Y-77182133D01*
X124643847Y-77220838D01*
X124605142Y-77298247D01*
X124605142Y-77530476D01*
X124643847Y-77607885D01*
X124682552Y-77646590D01*
X124759961Y-77685295D01*
X124914780Y-77685295D01*
X124992190Y-77646590D01*
X121213638Y-93530057D02*
X120594361Y-93530057D01*
X120904000Y-93839695D02*
X120904000Y-93220419D01*
X119491276Y-93065600D02*
X119568685Y-93026895D01*
X119684800Y-93026895D01*
X119800914Y-93065600D01*
X119878323Y-93143009D01*
X119917028Y-93220419D01*
X119955733Y-93375238D01*
X119955733Y-93491352D01*
X119917028Y-93646171D01*
X119878323Y-93723580D01*
X119800914Y-93800990D01*
X119684800Y-93839695D01*
X119607390Y-93839695D01*
X119491276Y-93800990D01*
X119452571Y-93762285D01*
X119452571Y-93491352D01*
X119607390Y-93491352D01*
X119104228Y-93839695D02*
X119104228Y-93026895D01*
X118639771Y-93839695D01*
X118639771Y-93026895D01*
X118252723Y-93839695D02*
X118252723Y-93026895D01*
X118059200Y-93026895D01*
X117943085Y-93065600D01*
X117865676Y-93143009D01*
X117826971Y-93220419D01*
X117788266Y-93375238D01*
X117788266Y-93491352D01*
X117826971Y-93646171D01*
X117865676Y-93723580D01*
X117943085Y-93800990D01*
X118059200Y-93839695D01*
X118252723Y-93839695D01*
X134608280Y-94727467D02*
G75*
G03X134620000Y-79018000I-6338280J7859467D01*
G01*
X121920000Y-78994000D02*
G75*
G03X121920000Y-94742000I6350000J-7874000D01*
G01*
X141862628Y-84523942D02*
X141746514Y-84562647D01*
X141707809Y-84601352D01*
X141669104Y-84678761D01*
X141669104Y-84794876D01*
X141707809Y-84872285D01*
X141746514Y-84910990D01*
X141823923Y-84949695D01*
X142133561Y-84949695D01*
X142133561Y-84136895D01*
X141862628Y-84136895D01*
X141785219Y-84175600D01*
X141746514Y-84214304D01*
X141707809Y-84291714D01*
X141707809Y-84369123D01*
X141746514Y-84446533D01*
X141785219Y-84485238D01*
X141862628Y-84523942D01*
X142133561Y-84523942D01*
X141436876Y-84136895D02*
X140972419Y-84136895D01*
X141204647Y-84949695D02*
X141204647Y-84136895D01*
X140275733Y-84949695D02*
X140740190Y-84949695D01*
X140507961Y-84949695D02*
X140507961Y-84136895D01*
X140585371Y-84253009D01*
X140662780Y-84330419D01*
X140740190Y-84369123D01*
X141787638Y-89974057D02*
X141168361Y-89974057D01*
X141478000Y-90283695D02*
X141478000Y-89664419D01*
M02*
