G04 #@! TF.GenerationSoftware,KiCad,Pcbnew,(5.1.4)-1*
G04 #@! TF.CreationDate,2020-01-29T15:42:18+01:00*
G04 #@! TF.ProjectId,BLE-node,424c452d-6e6f-4646-952e-6b696361645f,rev?*
G04 #@! TF.SameCoordinates,Original*
G04 #@! TF.FileFunction,Soldermask,Top*
G04 #@! TF.FilePolarity,Negative*
%FSLAX46Y46*%
G04 Gerber Fmt 4.6, Leading zero omitted, Abs format (unit mm)*
G04 Created by KiCad (PCBNEW (5.1.4)-1) date 2020-01-29 15:42:18*
%MOMM*%
%LPD*%
G04 APERTURE LIST*
%ADD10C,0.100000*%
G04 APERTURE END LIST*
D10*
G36*
X132141000Y-98329000D02*
G01*
X131039000Y-98329000D01*
X131039000Y-97327000D01*
X132141000Y-97327000D01*
X132141000Y-98329000D01*
X132141000Y-98329000D01*
G37*
G36*
X128041000Y-98329000D02*
G01*
X126939000Y-98329000D01*
X126939000Y-97327000D01*
X128041000Y-97327000D01*
X128041000Y-98329000D01*
X128041000Y-98329000D01*
G37*
G36*
X128041000Y-96729000D02*
G01*
X126939000Y-96729000D01*
X126939000Y-95727000D01*
X128041000Y-95727000D01*
X128041000Y-96729000D01*
X128041000Y-96729000D01*
G37*
G36*
X132141000Y-96729000D02*
G01*
X131039000Y-96729000D01*
X131039000Y-95727000D01*
X132141000Y-95727000D01*
X132141000Y-96729000D01*
X132141000Y-96729000D01*
G37*
G36*
X124522591Y-93966085D02*
G01*
X124556569Y-93976393D01*
X124587890Y-93993134D01*
X124615339Y-94015661D01*
X124637866Y-94043110D01*
X124654607Y-94074431D01*
X124664915Y-94108409D01*
X124669000Y-94149890D01*
X124669000Y-94826110D01*
X124664915Y-94867591D01*
X124654607Y-94901569D01*
X124637866Y-94932890D01*
X124615339Y-94960339D01*
X124587890Y-94982866D01*
X124556569Y-94999607D01*
X124522591Y-95009915D01*
X124481110Y-95014000D01*
X123879890Y-95014000D01*
X123838409Y-95009915D01*
X123804431Y-94999607D01*
X123773110Y-94982866D01*
X123745661Y-94960339D01*
X123723134Y-94932890D01*
X123706393Y-94901569D01*
X123696085Y-94867591D01*
X123692000Y-94826110D01*
X123692000Y-94149890D01*
X123696085Y-94108409D01*
X123706393Y-94074431D01*
X123723134Y-94043110D01*
X123745661Y-94015661D01*
X123773110Y-93993134D01*
X123804431Y-93976393D01*
X123838409Y-93966085D01*
X123879890Y-93962000D01*
X124481110Y-93962000D01*
X124522591Y-93966085D01*
X124522591Y-93966085D01*
G37*
G36*
X126097591Y-93966085D02*
G01*
X126131569Y-93976393D01*
X126162890Y-93993134D01*
X126190339Y-94015661D01*
X126212866Y-94043110D01*
X126229607Y-94074431D01*
X126239915Y-94108409D01*
X126244000Y-94149890D01*
X126244000Y-94826110D01*
X126239915Y-94867591D01*
X126229607Y-94901569D01*
X126212866Y-94932890D01*
X126190339Y-94960339D01*
X126162890Y-94982866D01*
X126131569Y-94999607D01*
X126097591Y-95009915D01*
X126056110Y-95014000D01*
X125454890Y-95014000D01*
X125413409Y-95009915D01*
X125379431Y-94999607D01*
X125348110Y-94982866D01*
X125320661Y-94960339D01*
X125298134Y-94932890D01*
X125281393Y-94901569D01*
X125271085Y-94867591D01*
X125267000Y-94826110D01*
X125267000Y-94149890D01*
X125271085Y-94108409D01*
X125281393Y-94074431D01*
X125298134Y-94043110D01*
X125320661Y-94015661D01*
X125348110Y-93993134D01*
X125379431Y-93976393D01*
X125413409Y-93966085D01*
X125454890Y-93962000D01*
X126056110Y-93962000D01*
X126097591Y-93966085D01*
X126097591Y-93966085D01*
G37*
G36*
X133666591Y-93966085D02*
G01*
X133700569Y-93976393D01*
X133731890Y-93993134D01*
X133759339Y-94015661D01*
X133781866Y-94043110D01*
X133798607Y-94074431D01*
X133808915Y-94108409D01*
X133813000Y-94149890D01*
X133813000Y-94826110D01*
X133808915Y-94867591D01*
X133798607Y-94901569D01*
X133781866Y-94932890D01*
X133759339Y-94960339D01*
X133731890Y-94982866D01*
X133700569Y-94999607D01*
X133666591Y-95009915D01*
X133625110Y-95014000D01*
X133023890Y-95014000D01*
X132982409Y-95009915D01*
X132948431Y-94999607D01*
X132917110Y-94982866D01*
X132889661Y-94960339D01*
X132867134Y-94932890D01*
X132850393Y-94901569D01*
X132840085Y-94867591D01*
X132836000Y-94826110D01*
X132836000Y-94149890D01*
X132840085Y-94108409D01*
X132850393Y-94074431D01*
X132867134Y-94043110D01*
X132889661Y-94015661D01*
X132917110Y-93993134D01*
X132948431Y-93976393D01*
X132982409Y-93966085D01*
X133023890Y-93962000D01*
X133625110Y-93962000D01*
X133666591Y-93966085D01*
X133666591Y-93966085D01*
G37*
G36*
X135241591Y-93966085D02*
G01*
X135275569Y-93976393D01*
X135306890Y-93993134D01*
X135334339Y-94015661D01*
X135356866Y-94043110D01*
X135373607Y-94074431D01*
X135383915Y-94108409D01*
X135388000Y-94149890D01*
X135388000Y-94826110D01*
X135383915Y-94867591D01*
X135373607Y-94901569D01*
X135356866Y-94932890D01*
X135334339Y-94960339D01*
X135306890Y-94982866D01*
X135275569Y-94999607D01*
X135241591Y-95009915D01*
X135200110Y-95014000D01*
X134598890Y-95014000D01*
X134557409Y-95009915D01*
X134523431Y-94999607D01*
X134492110Y-94982866D01*
X134464661Y-94960339D01*
X134442134Y-94932890D01*
X134425393Y-94901569D01*
X134415085Y-94867591D01*
X134411000Y-94826110D01*
X134411000Y-94149890D01*
X134415085Y-94108409D01*
X134425393Y-94074431D01*
X134442134Y-94043110D01*
X134464661Y-94015661D01*
X134492110Y-93993134D01*
X134523431Y-93976393D01*
X134557409Y-93966085D01*
X134598890Y-93962000D01*
X135200110Y-93962000D01*
X135241591Y-93966085D01*
X135241591Y-93966085D01*
G37*
G36*
X133666591Y-92442085D02*
G01*
X133700569Y-92452393D01*
X133731890Y-92469134D01*
X133759339Y-92491661D01*
X133781866Y-92519110D01*
X133798607Y-92550431D01*
X133808915Y-92584409D01*
X133813000Y-92625890D01*
X133813000Y-93302110D01*
X133808915Y-93343591D01*
X133798607Y-93377569D01*
X133781866Y-93408890D01*
X133759339Y-93436339D01*
X133731890Y-93458866D01*
X133700569Y-93475607D01*
X133666591Y-93485915D01*
X133625110Y-93490000D01*
X133023890Y-93490000D01*
X132982409Y-93485915D01*
X132948431Y-93475607D01*
X132917110Y-93458866D01*
X132889661Y-93436339D01*
X132867134Y-93408890D01*
X132850393Y-93377569D01*
X132840085Y-93343591D01*
X132836000Y-93302110D01*
X132836000Y-92625890D01*
X132840085Y-92584409D01*
X132850393Y-92550431D01*
X132867134Y-92519110D01*
X132889661Y-92491661D01*
X132917110Y-92469134D01*
X132948431Y-92452393D01*
X132982409Y-92442085D01*
X133023890Y-92438000D01*
X133625110Y-92438000D01*
X133666591Y-92442085D01*
X133666591Y-92442085D01*
G37*
G36*
X135241591Y-92442085D02*
G01*
X135275569Y-92452393D01*
X135306890Y-92469134D01*
X135334339Y-92491661D01*
X135356866Y-92519110D01*
X135373607Y-92550431D01*
X135383915Y-92584409D01*
X135388000Y-92625890D01*
X135388000Y-93302110D01*
X135383915Y-93343591D01*
X135373607Y-93377569D01*
X135356866Y-93408890D01*
X135334339Y-93436339D01*
X135306890Y-93458866D01*
X135275569Y-93475607D01*
X135241591Y-93485915D01*
X135200110Y-93490000D01*
X134598890Y-93490000D01*
X134557409Y-93485915D01*
X134523431Y-93475607D01*
X134492110Y-93458866D01*
X134464661Y-93436339D01*
X134442134Y-93408890D01*
X134425393Y-93377569D01*
X134415085Y-93343591D01*
X134411000Y-93302110D01*
X134411000Y-92625890D01*
X134415085Y-92584409D01*
X134425393Y-92550431D01*
X134442134Y-92519110D01*
X134464661Y-92491661D01*
X134492110Y-92469134D01*
X134523431Y-92452393D01*
X134557409Y-92442085D01*
X134598890Y-92438000D01*
X135200110Y-92438000D01*
X135241591Y-92442085D01*
X135241591Y-92442085D01*
G37*
G36*
X124522591Y-92442085D02*
G01*
X124556569Y-92452393D01*
X124587890Y-92469134D01*
X124615339Y-92491661D01*
X124637866Y-92519110D01*
X124654607Y-92550431D01*
X124664915Y-92584409D01*
X124669000Y-92625890D01*
X124669000Y-93302110D01*
X124664915Y-93343591D01*
X124654607Y-93377569D01*
X124637866Y-93408890D01*
X124615339Y-93436339D01*
X124587890Y-93458866D01*
X124556569Y-93475607D01*
X124522591Y-93485915D01*
X124481110Y-93490000D01*
X123879890Y-93490000D01*
X123838409Y-93485915D01*
X123804431Y-93475607D01*
X123773110Y-93458866D01*
X123745661Y-93436339D01*
X123723134Y-93408890D01*
X123706393Y-93377569D01*
X123696085Y-93343591D01*
X123692000Y-93302110D01*
X123692000Y-92625890D01*
X123696085Y-92584409D01*
X123706393Y-92550431D01*
X123723134Y-92519110D01*
X123745661Y-92491661D01*
X123773110Y-92469134D01*
X123804431Y-92452393D01*
X123838409Y-92442085D01*
X123879890Y-92438000D01*
X124481110Y-92438000D01*
X124522591Y-92442085D01*
X124522591Y-92442085D01*
G37*
G36*
X126097591Y-92442085D02*
G01*
X126131569Y-92452393D01*
X126162890Y-92469134D01*
X126190339Y-92491661D01*
X126212866Y-92519110D01*
X126229607Y-92550431D01*
X126239915Y-92584409D01*
X126244000Y-92625890D01*
X126244000Y-93302110D01*
X126239915Y-93343591D01*
X126229607Y-93377569D01*
X126212866Y-93408890D01*
X126190339Y-93436339D01*
X126162890Y-93458866D01*
X126131569Y-93475607D01*
X126097591Y-93485915D01*
X126056110Y-93490000D01*
X125454890Y-93490000D01*
X125413409Y-93485915D01*
X125379431Y-93475607D01*
X125348110Y-93458866D01*
X125320661Y-93436339D01*
X125298134Y-93408890D01*
X125281393Y-93377569D01*
X125271085Y-93343591D01*
X125267000Y-93302110D01*
X125267000Y-92625890D01*
X125271085Y-92584409D01*
X125281393Y-92550431D01*
X125298134Y-92519110D01*
X125320661Y-92491661D01*
X125348110Y-92469134D01*
X125379431Y-92452393D01*
X125413409Y-92442085D01*
X125454890Y-92438000D01*
X126056110Y-92438000D01*
X126097591Y-92442085D01*
X126097591Y-92442085D01*
G37*
G36*
X127991000Y-93428000D02*
G01*
X126789000Y-93428000D01*
X126789000Y-90976000D01*
X127991000Y-90976000D01*
X127991000Y-93428000D01*
X127991000Y-93428000D01*
G37*
G36*
X132291000Y-93428000D02*
G01*
X131089000Y-93428000D01*
X131089000Y-90976000D01*
X132291000Y-90976000D01*
X132291000Y-93428000D01*
X132291000Y-93428000D01*
G37*
G36*
X121630000Y-92420000D02*
G01*
X120178000Y-92420000D01*
X120178000Y-90968000D01*
X121630000Y-90968000D01*
X121630000Y-92420000D01*
X121630000Y-92420000D01*
G37*
G36*
X118975213Y-90971502D02*
G01*
X119046321Y-90978505D01*
X119183172Y-91020019D01*
X119183175Y-91020020D01*
X119309294Y-91087432D01*
X119419843Y-91178157D01*
X119510568Y-91288706D01*
X119577980Y-91414825D01*
X119577981Y-91414828D01*
X119619495Y-91551679D01*
X119633512Y-91694000D01*
X119619495Y-91836321D01*
X119584523Y-91951607D01*
X119577980Y-91973175D01*
X119510568Y-92099294D01*
X119419843Y-92209843D01*
X119309294Y-92300568D01*
X119183175Y-92367980D01*
X119183172Y-92367981D01*
X119046321Y-92409495D01*
X118975213Y-92416498D01*
X118939660Y-92420000D01*
X118868340Y-92420000D01*
X118832787Y-92416498D01*
X118761679Y-92409495D01*
X118624828Y-92367981D01*
X118624825Y-92367980D01*
X118498706Y-92300568D01*
X118388157Y-92209843D01*
X118297432Y-92099294D01*
X118230020Y-91973175D01*
X118223477Y-91951607D01*
X118188505Y-91836321D01*
X118174488Y-91694000D01*
X118188505Y-91551679D01*
X118230019Y-91414828D01*
X118230020Y-91414825D01*
X118297432Y-91288706D01*
X118388157Y-91178157D01*
X118498706Y-91087432D01*
X118624825Y-91020020D01*
X118624828Y-91020019D01*
X118761679Y-90978505D01*
X118832787Y-90971502D01*
X118868340Y-90968000D01*
X118939660Y-90968000D01*
X118975213Y-90971502D01*
X118975213Y-90971502D01*
G37*
G36*
X135241591Y-90918085D02*
G01*
X135275569Y-90928393D01*
X135306890Y-90945134D01*
X135334339Y-90967661D01*
X135356866Y-90995110D01*
X135373607Y-91026431D01*
X135383915Y-91060409D01*
X135388000Y-91101890D01*
X135388000Y-91778110D01*
X135383915Y-91819591D01*
X135373607Y-91853569D01*
X135356866Y-91884890D01*
X135334339Y-91912339D01*
X135306890Y-91934866D01*
X135275569Y-91951607D01*
X135241591Y-91961915D01*
X135200110Y-91966000D01*
X134598890Y-91966000D01*
X134557409Y-91961915D01*
X134523431Y-91951607D01*
X134492110Y-91934866D01*
X134464661Y-91912339D01*
X134442134Y-91884890D01*
X134425393Y-91853569D01*
X134415085Y-91819591D01*
X134411000Y-91778110D01*
X134411000Y-91101890D01*
X134415085Y-91060409D01*
X134425393Y-91026431D01*
X134442134Y-90995110D01*
X134464661Y-90967661D01*
X134492110Y-90945134D01*
X134523431Y-90928393D01*
X134557409Y-90918085D01*
X134598890Y-90914000D01*
X135200110Y-90914000D01*
X135241591Y-90918085D01*
X135241591Y-90918085D01*
G37*
G36*
X124522591Y-90918085D02*
G01*
X124556569Y-90928393D01*
X124587890Y-90945134D01*
X124615339Y-90967661D01*
X124637866Y-90995110D01*
X124654607Y-91026431D01*
X124664915Y-91060409D01*
X124669000Y-91101890D01*
X124669000Y-91778110D01*
X124664915Y-91819591D01*
X124654607Y-91853569D01*
X124637866Y-91884890D01*
X124615339Y-91912339D01*
X124587890Y-91934866D01*
X124556569Y-91951607D01*
X124522591Y-91961915D01*
X124481110Y-91966000D01*
X123879890Y-91966000D01*
X123838409Y-91961915D01*
X123804431Y-91951607D01*
X123773110Y-91934866D01*
X123745661Y-91912339D01*
X123723134Y-91884890D01*
X123706393Y-91853569D01*
X123696085Y-91819591D01*
X123692000Y-91778110D01*
X123692000Y-91101890D01*
X123696085Y-91060409D01*
X123706393Y-91026431D01*
X123723134Y-90995110D01*
X123745661Y-90967661D01*
X123773110Y-90945134D01*
X123804431Y-90928393D01*
X123838409Y-90918085D01*
X123879890Y-90914000D01*
X124481110Y-90914000D01*
X124522591Y-90918085D01*
X124522591Y-90918085D01*
G37*
G36*
X133666591Y-90918085D02*
G01*
X133700569Y-90928393D01*
X133731890Y-90945134D01*
X133759339Y-90967661D01*
X133781866Y-90995110D01*
X133798607Y-91026431D01*
X133808915Y-91060409D01*
X133813000Y-91101890D01*
X133813000Y-91778110D01*
X133808915Y-91819591D01*
X133798607Y-91853569D01*
X133781866Y-91884890D01*
X133759339Y-91912339D01*
X133731890Y-91934866D01*
X133700569Y-91951607D01*
X133666591Y-91961915D01*
X133625110Y-91966000D01*
X133023890Y-91966000D01*
X132982409Y-91961915D01*
X132948431Y-91951607D01*
X132917110Y-91934866D01*
X132889661Y-91912339D01*
X132867134Y-91884890D01*
X132850393Y-91853569D01*
X132840085Y-91819591D01*
X132836000Y-91778110D01*
X132836000Y-91101890D01*
X132840085Y-91060409D01*
X132850393Y-91026431D01*
X132867134Y-90995110D01*
X132889661Y-90967661D01*
X132917110Y-90945134D01*
X132948431Y-90928393D01*
X132982409Y-90918085D01*
X133023890Y-90914000D01*
X133625110Y-90914000D01*
X133666591Y-90918085D01*
X133666591Y-90918085D01*
G37*
G36*
X126097591Y-90918085D02*
G01*
X126131569Y-90928393D01*
X126162890Y-90945134D01*
X126190339Y-90967661D01*
X126212866Y-90995110D01*
X126229607Y-91026431D01*
X126239915Y-91060409D01*
X126244000Y-91101890D01*
X126244000Y-91778110D01*
X126239915Y-91819591D01*
X126229607Y-91853569D01*
X126212866Y-91884890D01*
X126190339Y-91912339D01*
X126162890Y-91934866D01*
X126131569Y-91951607D01*
X126097591Y-91961915D01*
X126056110Y-91966000D01*
X125454890Y-91966000D01*
X125413409Y-91961915D01*
X125379431Y-91951607D01*
X125348110Y-91934866D01*
X125320661Y-91912339D01*
X125298134Y-91884890D01*
X125281393Y-91853569D01*
X125271085Y-91819591D01*
X125267000Y-91778110D01*
X125267000Y-91101890D01*
X125271085Y-91060409D01*
X125281393Y-91026431D01*
X125298134Y-90995110D01*
X125320661Y-90967661D01*
X125348110Y-90945134D01*
X125379431Y-90928393D01*
X125413409Y-90918085D01*
X125454890Y-90914000D01*
X126056110Y-90914000D01*
X126097591Y-90918085D01*
X126097591Y-90918085D01*
G37*
G36*
X137977000Y-90409000D02*
G01*
X136875000Y-90409000D01*
X136875000Y-88407000D01*
X137977000Y-88407000D01*
X137977000Y-90409000D01*
X137977000Y-90409000D01*
G37*
G36*
X139477000Y-90409000D02*
G01*
X138375000Y-90409000D01*
X138375000Y-88407000D01*
X139477000Y-88407000D01*
X139477000Y-90409000D01*
X139477000Y-90409000D01*
G37*
G36*
X119189000Y-89321000D02*
G01*
X116687000Y-89321000D01*
X116687000Y-88479000D01*
X119189000Y-88479000D01*
X119189000Y-89321000D01*
X119189000Y-89321000D01*
G37*
G36*
X123089000Y-89321000D02*
G01*
X120587000Y-89321000D01*
X120587000Y-88479000D01*
X123089000Y-88479000D01*
X123089000Y-89321000D01*
X123089000Y-89321000D01*
G37*
G36*
X131939980Y-88196341D02*
G01*
X131942382Y-88220727D01*
X131949495Y-88244176D01*
X131961046Y-88265787D01*
X131976591Y-88284729D01*
X131995533Y-88300274D01*
X132017144Y-88311825D01*
X132040593Y-88318938D01*
X132064979Y-88321340D01*
X133941000Y-88321340D01*
X133941000Y-89123340D01*
X125139000Y-89123340D01*
X125139000Y-88321340D01*
X127015021Y-88321340D01*
X127039407Y-88318938D01*
X127062856Y-88311825D01*
X127084467Y-88300274D01*
X127103409Y-88284729D01*
X127118954Y-88265787D01*
X127130505Y-88244176D01*
X127137618Y-88220727D01*
X127140020Y-88196341D01*
X127140020Y-86872680D01*
X131939980Y-86872680D01*
X131939980Y-88196341D01*
X131939980Y-88196341D01*
G37*
G36*
X123089000Y-88051000D02*
G01*
X120587000Y-88051000D01*
X120587000Y-87209000D01*
X123089000Y-87209000D01*
X123089000Y-88051000D01*
X123089000Y-88051000D01*
G37*
G36*
X119189000Y-88051000D02*
G01*
X116687000Y-88051000D01*
X116687000Y-87209000D01*
X119189000Y-87209000D01*
X119189000Y-88051000D01*
X119189000Y-88051000D01*
G37*
G36*
X125591040Y-78049661D02*
G01*
X125593442Y-78074047D01*
X125600555Y-78097496D01*
X125612106Y-78119107D01*
X125627651Y-78138049D01*
X125646593Y-78153594D01*
X125668204Y-78165145D01*
X125691653Y-78172258D01*
X125716039Y-78174660D01*
X126041040Y-78174660D01*
X126041040Y-87973340D01*
X124789040Y-87973340D01*
X124789040Y-77171340D01*
X125591040Y-77171340D01*
X125591040Y-78049661D01*
X125591040Y-78049661D01*
G37*
G36*
X134259000Y-78049661D02*
G01*
X134261402Y-78074047D01*
X134268515Y-78097496D01*
X134280066Y-78119107D01*
X134290960Y-78132382D01*
X134290960Y-87973340D01*
X133038960Y-87973340D01*
X133038960Y-78174660D01*
X133332001Y-78174660D01*
X133356387Y-78172258D01*
X133379836Y-78165145D01*
X133401447Y-78153594D01*
X133420389Y-78138049D01*
X133435934Y-78119107D01*
X133447485Y-78097496D01*
X133454598Y-78074047D01*
X133457000Y-78049661D01*
X133457000Y-77171340D01*
X134259000Y-77171340D01*
X134259000Y-78049661D01*
X134259000Y-78049661D01*
G37*
G36*
X119189000Y-86781000D02*
G01*
X116687000Y-86781000D01*
X116687000Y-85939000D01*
X119189000Y-85939000D01*
X119189000Y-86781000D01*
X119189000Y-86781000D01*
G37*
G36*
X123089000Y-86781000D02*
G01*
X120587000Y-86781000D01*
X120587000Y-85939000D01*
X123089000Y-85939000D01*
X123089000Y-86781000D01*
X123089000Y-86781000D01*
G37*
G36*
X139305591Y-85584085D02*
G01*
X139339569Y-85594393D01*
X139370890Y-85611134D01*
X139398339Y-85633661D01*
X139420866Y-85661110D01*
X139437607Y-85692431D01*
X139447915Y-85726409D01*
X139452000Y-85767890D01*
X139452000Y-86444110D01*
X139447915Y-86485591D01*
X139437607Y-86519569D01*
X139420866Y-86550890D01*
X139398339Y-86578339D01*
X139370890Y-86600866D01*
X139339569Y-86617607D01*
X139305591Y-86627915D01*
X139264110Y-86632000D01*
X138662890Y-86632000D01*
X138621409Y-86627915D01*
X138587431Y-86617607D01*
X138556110Y-86600866D01*
X138528661Y-86578339D01*
X138506134Y-86550890D01*
X138489393Y-86519569D01*
X138479085Y-86485591D01*
X138475000Y-86444110D01*
X138475000Y-85767890D01*
X138479085Y-85726409D01*
X138489393Y-85692431D01*
X138506134Y-85661110D01*
X138528661Y-85633661D01*
X138556110Y-85611134D01*
X138587431Y-85594393D01*
X138621409Y-85584085D01*
X138662890Y-85580000D01*
X139264110Y-85580000D01*
X139305591Y-85584085D01*
X139305591Y-85584085D01*
G37*
G36*
X137730591Y-85584085D02*
G01*
X137764569Y-85594393D01*
X137795890Y-85611134D01*
X137823339Y-85633661D01*
X137845866Y-85661110D01*
X137862607Y-85692431D01*
X137872915Y-85726409D01*
X137877000Y-85767890D01*
X137877000Y-86444110D01*
X137872915Y-86485591D01*
X137862607Y-86519569D01*
X137845866Y-86550890D01*
X137823339Y-86578339D01*
X137795890Y-86600866D01*
X137764569Y-86617607D01*
X137730591Y-86627915D01*
X137689110Y-86632000D01*
X137087890Y-86632000D01*
X137046409Y-86627915D01*
X137012431Y-86617607D01*
X136981110Y-86600866D01*
X136953661Y-86578339D01*
X136931134Y-86550890D01*
X136914393Y-86519569D01*
X136904085Y-86485591D01*
X136900000Y-86444110D01*
X136900000Y-85767890D01*
X136904085Y-85726409D01*
X136914393Y-85692431D01*
X136931134Y-85661110D01*
X136953661Y-85633661D01*
X136981110Y-85611134D01*
X137012431Y-85594393D01*
X137046409Y-85584085D01*
X137087890Y-85580000D01*
X137689110Y-85580000D01*
X137730591Y-85584085D01*
X137730591Y-85584085D01*
G37*
G36*
X132691040Y-86523340D02*
G01*
X131889040Y-86523340D01*
X131889040Y-85721340D01*
X132691040Y-85721340D01*
X132691040Y-86523340D01*
X132691040Y-86523340D01*
G37*
G36*
X131591040Y-86523340D02*
G01*
X130789040Y-86523340D01*
X130789040Y-85721340D01*
X131591040Y-85721340D01*
X131591040Y-86523340D01*
X131591040Y-86523340D01*
G37*
G36*
X128291040Y-86523340D02*
G01*
X127489040Y-86523340D01*
X127489040Y-85721340D01*
X128291040Y-85721340D01*
X128291040Y-86523340D01*
X128291040Y-86523340D01*
G37*
G36*
X130491040Y-86523340D02*
G01*
X129689040Y-86523340D01*
X129689040Y-85721340D01*
X130491040Y-85721340D01*
X130491040Y-86523340D01*
X130491040Y-86523340D01*
G37*
G36*
X127191040Y-86523340D02*
G01*
X126389040Y-86523340D01*
X126389040Y-85721340D01*
X127191040Y-85721340D01*
X127191040Y-86523340D01*
X127191040Y-86523340D01*
G37*
G36*
X129391040Y-86523340D02*
G01*
X128589040Y-86523340D01*
X128589040Y-85721340D01*
X129391040Y-85721340D01*
X129391040Y-86523340D01*
X129391040Y-86523340D01*
G37*
G36*
X119189000Y-85511000D02*
G01*
X116687000Y-85511000D01*
X116687000Y-84669000D01*
X119189000Y-84669000D01*
X119189000Y-85511000D01*
X119189000Y-85511000D01*
G37*
G36*
X123089000Y-85511000D02*
G01*
X120587000Y-85511000D01*
X120587000Y-84669000D01*
X123089000Y-84669000D01*
X123089000Y-85511000D01*
X123089000Y-85511000D01*
G37*
G36*
X127191040Y-85423340D02*
G01*
X126389040Y-85423340D01*
X126389040Y-84621340D01*
X127191040Y-84621340D01*
X127191040Y-85423340D01*
X127191040Y-85423340D01*
G37*
G36*
X132691040Y-85423340D02*
G01*
X131889040Y-85423340D01*
X131889040Y-84621340D01*
X132691040Y-84621340D01*
X132691040Y-85423340D01*
X132691040Y-85423340D01*
G37*
G36*
X129366960Y-85199660D02*
G01*
X128564960Y-85199660D01*
X128564960Y-84397660D01*
X129366960Y-84397660D01*
X129366960Y-85199660D01*
X129366960Y-85199660D01*
G37*
G36*
X130515040Y-85199660D02*
G01*
X129713040Y-85199660D01*
X129713040Y-84397660D01*
X130515040Y-84397660D01*
X130515040Y-85199660D01*
X130515040Y-85199660D01*
G37*
G36*
X137730591Y-84060085D02*
G01*
X137764569Y-84070393D01*
X137795890Y-84087134D01*
X137823339Y-84109661D01*
X137845866Y-84137110D01*
X137862607Y-84168431D01*
X137872915Y-84202409D01*
X137877000Y-84243890D01*
X137877000Y-84920110D01*
X137872915Y-84961591D01*
X137862607Y-84995569D01*
X137845866Y-85026890D01*
X137823339Y-85054339D01*
X137795890Y-85076866D01*
X137764569Y-85093607D01*
X137730591Y-85103915D01*
X137689110Y-85108000D01*
X137087890Y-85108000D01*
X137046409Y-85103915D01*
X137012431Y-85093607D01*
X136981110Y-85076866D01*
X136953661Y-85054339D01*
X136931134Y-85026890D01*
X136914393Y-84995569D01*
X136904085Y-84961591D01*
X136900000Y-84920110D01*
X136900000Y-84243890D01*
X136904085Y-84202409D01*
X136914393Y-84168431D01*
X136931134Y-84137110D01*
X136953661Y-84109661D01*
X136981110Y-84087134D01*
X137012431Y-84070393D01*
X137046409Y-84060085D01*
X137087890Y-84056000D01*
X137689110Y-84056000D01*
X137730591Y-84060085D01*
X137730591Y-84060085D01*
G37*
G36*
X139305591Y-84060085D02*
G01*
X139339569Y-84070393D01*
X139370890Y-84087134D01*
X139398339Y-84109661D01*
X139420866Y-84137110D01*
X139437607Y-84168431D01*
X139447915Y-84202409D01*
X139452000Y-84243890D01*
X139452000Y-84920110D01*
X139447915Y-84961591D01*
X139437607Y-84995569D01*
X139420866Y-85026890D01*
X139398339Y-85054339D01*
X139370890Y-85076866D01*
X139339569Y-85093607D01*
X139305591Y-85103915D01*
X139264110Y-85108000D01*
X138662890Y-85108000D01*
X138621409Y-85103915D01*
X138587431Y-85093607D01*
X138556110Y-85076866D01*
X138528661Y-85054339D01*
X138506134Y-85026890D01*
X138489393Y-84995569D01*
X138479085Y-84961591D01*
X138475000Y-84920110D01*
X138475000Y-84243890D01*
X138479085Y-84202409D01*
X138489393Y-84168431D01*
X138506134Y-84137110D01*
X138528661Y-84109661D01*
X138556110Y-84087134D01*
X138587431Y-84070393D01*
X138621409Y-84060085D01*
X138662890Y-84056000D01*
X139264110Y-84056000D01*
X139305591Y-84060085D01*
X139305591Y-84060085D01*
G37*
G36*
X131702271Y-83259951D02*
G01*
X131686726Y-83278893D01*
X131675175Y-83300504D01*
X131668062Y-83323953D01*
X131665660Y-83348339D01*
X131665660Y-83396341D01*
X131668062Y-83420727D01*
X131675175Y-83444176D01*
X131686726Y-83465787D01*
X131702271Y-83484729D01*
X131721213Y-83500274D01*
X131742824Y-83511825D01*
X131766273Y-83518938D01*
X131790659Y-83521340D01*
X132691040Y-83521340D01*
X132691040Y-84323340D01*
X131889040Y-84323340D01*
X131889040Y-84174039D01*
X131886638Y-84149653D01*
X131879525Y-84126204D01*
X131867974Y-84104593D01*
X131852429Y-84085651D01*
X131833487Y-84070106D01*
X131811876Y-84058555D01*
X131788427Y-84051442D01*
X131764041Y-84049040D01*
X130863660Y-84049040D01*
X130863660Y-83247040D01*
X131718003Y-83247040D01*
X131702271Y-83259951D01*
X131702271Y-83259951D01*
G37*
G36*
X128216340Y-84049040D02*
G01*
X127316039Y-84049040D01*
X127291653Y-84051442D01*
X127268204Y-84058555D01*
X127246593Y-84070106D01*
X127227651Y-84085651D01*
X127212106Y-84104593D01*
X127200555Y-84126204D01*
X127193442Y-84149653D01*
X127191040Y-84174039D01*
X127191040Y-84323340D01*
X126389040Y-84323340D01*
X126389040Y-83521340D01*
X127289341Y-83521340D01*
X127313727Y-83518938D01*
X127337176Y-83511825D01*
X127358787Y-83500274D01*
X127377729Y-83484729D01*
X127393274Y-83465787D01*
X127404825Y-83444176D01*
X127411938Y-83420727D01*
X127414340Y-83396341D01*
X127414340Y-83348339D01*
X127411938Y-83323953D01*
X127404825Y-83300504D01*
X127393274Y-83278893D01*
X127377729Y-83259951D01*
X127361997Y-83247040D01*
X128216340Y-83247040D01*
X128216340Y-84049040D01*
X128216340Y-84049040D01*
G37*
G36*
X119189000Y-84241000D02*
G01*
X116687000Y-84241000D01*
X116687000Y-83399000D01*
X119189000Y-83399000D01*
X119189000Y-84241000D01*
X119189000Y-84241000D01*
G37*
G36*
X123089000Y-84241000D02*
G01*
X120587000Y-84241000D01*
X120587000Y-83399000D01*
X123089000Y-83399000D01*
X123089000Y-84241000D01*
X123089000Y-84241000D01*
G37*
G36*
X130515040Y-84049040D02*
G01*
X129713040Y-84049040D01*
X129713040Y-83247040D01*
X130515040Y-83247040D01*
X130515040Y-84049040D01*
X130515040Y-84049040D01*
G37*
G36*
X129366960Y-84049040D02*
G01*
X128564960Y-84049040D01*
X128564960Y-83247040D01*
X129366960Y-83247040D01*
X129366960Y-84049040D01*
X129366960Y-84049040D01*
G37*
G36*
X138577000Y-81699001D02*
G01*
X138579402Y-81723387D01*
X138586515Y-81746836D01*
X138598066Y-81768447D01*
X138613611Y-81787389D01*
X138632553Y-81802934D01*
X138654164Y-81814485D01*
X138677613Y-81821598D01*
X138701999Y-81824000D01*
X139477000Y-81824000D01*
X139477000Y-82326000D01*
X138701999Y-82326000D01*
X138677613Y-82328402D01*
X138654164Y-82335515D01*
X138632553Y-82347066D01*
X138613611Y-82362611D01*
X138598066Y-82381553D01*
X138586515Y-82403164D01*
X138579402Y-82426613D01*
X138577000Y-82450999D01*
X138577000Y-82649001D01*
X138579402Y-82673387D01*
X138586515Y-82696836D01*
X138598066Y-82718447D01*
X138613611Y-82737389D01*
X138632553Y-82752934D01*
X138654164Y-82764485D01*
X138677613Y-82771598D01*
X138701999Y-82774000D01*
X139477000Y-82774000D01*
X139477000Y-83276000D01*
X138701999Y-83276000D01*
X138677613Y-83278402D01*
X138654164Y-83285515D01*
X138632553Y-83297066D01*
X138613611Y-83312611D01*
X138598066Y-83331553D01*
X138586515Y-83353164D01*
X138579402Y-83376613D01*
X138577000Y-83400999D01*
X138577000Y-83401000D01*
X137775000Y-83401000D01*
X137775000Y-83400999D01*
X137772598Y-83376613D01*
X137765485Y-83353164D01*
X137753934Y-83331553D01*
X137738389Y-83312611D01*
X137719447Y-83297066D01*
X137697836Y-83285515D01*
X137674387Y-83278402D01*
X137650001Y-83276000D01*
X136875000Y-83276000D01*
X136875000Y-82774000D01*
X137650001Y-82774000D01*
X137674387Y-82771598D01*
X137697836Y-82764485D01*
X137719447Y-82752934D01*
X137738389Y-82737389D01*
X137753934Y-82718447D01*
X137765485Y-82696836D01*
X137772598Y-82673387D01*
X137775000Y-82649001D01*
X137775000Y-82450999D01*
X137772598Y-82426613D01*
X137765485Y-82403164D01*
X137753934Y-82381553D01*
X137738389Y-82362611D01*
X137719447Y-82347066D01*
X137697836Y-82335515D01*
X137674387Y-82328402D01*
X137650001Y-82326000D01*
X136875000Y-82326000D01*
X136875000Y-81824000D01*
X137650001Y-81824000D01*
X137674387Y-81821598D01*
X137697836Y-81814485D01*
X137719447Y-81802934D01*
X137738389Y-81787389D01*
X137753934Y-81768447D01*
X137765485Y-81746836D01*
X137772598Y-81723387D01*
X137775000Y-81699001D01*
X137775000Y-81699000D01*
X138577000Y-81699000D01*
X138577000Y-81699001D01*
X138577000Y-81699001D01*
G37*
G36*
X127191040Y-83122041D02*
G01*
X127193442Y-83146427D01*
X127200555Y-83169876D01*
X127212106Y-83191487D01*
X127227651Y-83210429D01*
X127243383Y-83223340D01*
X126389040Y-83223340D01*
X126389040Y-82421340D01*
X127191040Y-82421340D01*
X127191040Y-83122041D01*
X127191040Y-83122041D01*
G37*
G36*
X132691040Y-83223340D02*
G01*
X131836697Y-83223340D01*
X131852429Y-83210429D01*
X131867974Y-83191487D01*
X131879525Y-83169876D01*
X131886638Y-83146427D01*
X131889040Y-83122041D01*
X131889040Y-82421340D01*
X132691040Y-82421340D01*
X132691040Y-83223340D01*
X132691040Y-83223340D01*
G37*
G36*
X130515040Y-82900960D02*
G01*
X129713040Y-82900960D01*
X129713040Y-82098960D01*
X130515040Y-82098960D01*
X130515040Y-82900960D01*
X130515040Y-82900960D01*
G37*
G36*
X129366960Y-82900960D02*
G01*
X128564960Y-82900960D01*
X128564960Y-82098960D01*
X129366960Y-82098960D01*
X129366960Y-82900960D01*
X129366960Y-82900960D01*
G37*
G36*
X132691040Y-81023340D02*
G01*
X131790659Y-81023340D01*
X131766273Y-81025742D01*
X131742824Y-81032855D01*
X131721213Y-81044406D01*
X131702271Y-81059951D01*
X131686726Y-81078893D01*
X131675175Y-81100504D01*
X131668062Y-81123953D01*
X131665660Y-81148339D01*
X131665660Y-81196341D01*
X131668062Y-81220727D01*
X131675175Y-81244176D01*
X131686726Y-81265787D01*
X131702271Y-81284729D01*
X131721213Y-81300274D01*
X131742824Y-81311825D01*
X131766273Y-81318938D01*
X131790659Y-81321340D01*
X132691040Y-81321340D01*
X132691040Y-82123340D01*
X131889040Y-82123340D01*
X131889040Y-81875339D01*
X131886638Y-81850953D01*
X131879525Y-81827504D01*
X131867974Y-81805893D01*
X131852429Y-81786951D01*
X131833487Y-81771406D01*
X131811876Y-81759855D01*
X131788427Y-81752742D01*
X131764041Y-81750340D01*
X130863660Y-81750340D01*
X130863660Y-80948340D01*
X131764041Y-80948340D01*
X131788427Y-80945938D01*
X131811876Y-80938825D01*
X131833487Y-80927274D01*
X131852429Y-80911729D01*
X131867974Y-80892787D01*
X131879525Y-80871176D01*
X131886638Y-80847727D01*
X131889040Y-80823341D01*
X131889040Y-80221340D01*
X132691040Y-80221340D01*
X132691040Y-81023340D01*
X132691040Y-81023340D01*
G37*
G36*
X127191040Y-80823341D02*
G01*
X127193442Y-80847727D01*
X127200555Y-80871176D01*
X127212106Y-80892787D01*
X127227651Y-80911729D01*
X127246593Y-80927274D01*
X127268204Y-80938825D01*
X127291653Y-80945938D01*
X127316039Y-80948340D01*
X128216340Y-80948340D01*
X128216340Y-81750340D01*
X127316039Y-81750340D01*
X127291653Y-81752742D01*
X127268204Y-81759855D01*
X127246593Y-81771406D01*
X127227651Y-81786951D01*
X127212106Y-81805893D01*
X127200555Y-81827504D01*
X127193442Y-81850953D01*
X127191040Y-81875339D01*
X127191040Y-82123340D01*
X126389040Y-82123340D01*
X126389040Y-81321340D01*
X127289341Y-81321340D01*
X127313727Y-81318938D01*
X127337176Y-81311825D01*
X127358787Y-81300274D01*
X127377729Y-81284729D01*
X127393274Y-81265787D01*
X127404825Y-81244176D01*
X127411938Y-81220727D01*
X127414340Y-81196341D01*
X127414340Y-81148339D01*
X127411938Y-81123953D01*
X127404825Y-81100504D01*
X127393274Y-81078893D01*
X127377729Y-81059951D01*
X127358787Y-81044406D01*
X127337176Y-81032855D01*
X127313727Y-81025742D01*
X127289341Y-81023340D01*
X126389040Y-81023340D01*
X126389040Y-80221340D01*
X127191040Y-80221340D01*
X127191040Y-80823341D01*
X127191040Y-80823341D01*
G37*
G36*
X122753213Y-80525502D02*
G01*
X122824321Y-80532505D01*
X122961172Y-80574019D01*
X122961175Y-80574020D01*
X123087294Y-80641432D01*
X123197843Y-80732157D01*
X123288568Y-80842706D01*
X123355980Y-80968825D01*
X123355981Y-80968828D01*
X123397495Y-81105679D01*
X123411512Y-81248000D01*
X123397495Y-81390321D01*
X123355981Y-81527172D01*
X123355980Y-81527175D01*
X123288568Y-81653294D01*
X123197843Y-81763843D01*
X123087294Y-81854568D01*
X122961175Y-81921980D01*
X122961172Y-81921981D01*
X122824321Y-81963495D01*
X122753213Y-81970498D01*
X122717660Y-81974000D01*
X122646340Y-81974000D01*
X122610787Y-81970498D01*
X122539679Y-81963495D01*
X122402828Y-81921981D01*
X122402825Y-81921980D01*
X122276706Y-81854568D01*
X122166157Y-81763843D01*
X122075432Y-81653294D01*
X122008020Y-81527175D01*
X122008019Y-81527172D01*
X121966505Y-81390321D01*
X121952488Y-81248000D01*
X121966505Y-81105679D01*
X122008019Y-80968828D01*
X122008020Y-80968825D01*
X122075432Y-80842706D01*
X122166157Y-80732157D01*
X122276706Y-80641432D01*
X122402825Y-80574020D01*
X122402828Y-80574019D01*
X122539679Y-80532505D01*
X122610787Y-80525502D01*
X122646340Y-80522000D01*
X122717660Y-80522000D01*
X122753213Y-80525502D01*
X122753213Y-80525502D01*
G37*
G36*
X120753213Y-80525502D02*
G01*
X120824321Y-80532505D01*
X120961172Y-80574019D01*
X120961175Y-80574020D01*
X121087294Y-80641432D01*
X121197843Y-80732157D01*
X121288568Y-80842706D01*
X121355980Y-80968825D01*
X121355981Y-80968828D01*
X121397495Y-81105679D01*
X121411512Y-81248000D01*
X121397495Y-81390321D01*
X121355981Y-81527172D01*
X121355980Y-81527175D01*
X121288568Y-81653294D01*
X121197843Y-81763843D01*
X121087294Y-81854568D01*
X120961175Y-81921980D01*
X120961172Y-81921981D01*
X120824321Y-81963495D01*
X120753213Y-81970498D01*
X120717660Y-81974000D01*
X120646340Y-81974000D01*
X120610787Y-81970498D01*
X120539679Y-81963495D01*
X120402828Y-81921981D01*
X120402825Y-81921980D01*
X120276706Y-81854568D01*
X120166157Y-81763843D01*
X120075432Y-81653294D01*
X120008020Y-81527175D01*
X120008019Y-81527172D01*
X119966505Y-81390321D01*
X119952488Y-81248000D01*
X119966505Y-81105679D01*
X120008019Y-80968828D01*
X120008020Y-80968825D01*
X120075432Y-80842706D01*
X120166157Y-80732157D01*
X120276706Y-80641432D01*
X120402825Y-80574020D01*
X120402828Y-80574019D01*
X120539679Y-80532505D01*
X120610787Y-80525502D01*
X120646340Y-80522000D01*
X120717660Y-80522000D01*
X120753213Y-80525502D01*
X120753213Y-80525502D01*
G37*
G36*
X130515040Y-81750340D02*
G01*
X129713040Y-81750340D01*
X129713040Y-80948340D01*
X130515040Y-80948340D01*
X130515040Y-81750340D01*
X130515040Y-81750340D01*
G37*
G36*
X129366960Y-81750340D02*
G01*
X128564960Y-81750340D01*
X128564960Y-80948340D01*
X129366960Y-80948340D01*
X129366960Y-81750340D01*
X129366960Y-81750340D01*
G37*
G36*
X136015591Y-79297085D02*
G01*
X136049569Y-79307393D01*
X136080890Y-79324134D01*
X136108339Y-79346661D01*
X136130866Y-79374110D01*
X136147607Y-79405431D01*
X136157915Y-79439409D01*
X136162000Y-79480890D01*
X136162000Y-80082110D01*
X136157915Y-80123591D01*
X136147607Y-80157569D01*
X136130866Y-80188890D01*
X136108339Y-80216339D01*
X136080890Y-80238866D01*
X136049569Y-80255607D01*
X136015591Y-80265915D01*
X135974110Y-80270000D01*
X135297890Y-80270000D01*
X135256409Y-80265915D01*
X135222431Y-80255607D01*
X135191110Y-80238866D01*
X135163661Y-80216339D01*
X135141134Y-80188890D01*
X135124393Y-80157569D01*
X135114085Y-80123591D01*
X135110000Y-80082110D01*
X135110000Y-79480890D01*
X135114085Y-79439409D01*
X135124393Y-79405431D01*
X135141134Y-79374110D01*
X135163661Y-79346661D01*
X135191110Y-79324134D01*
X135222431Y-79307393D01*
X135256409Y-79297085D01*
X135297890Y-79293000D01*
X135974110Y-79293000D01*
X136015591Y-79297085D01*
X136015591Y-79297085D01*
G37*
G36*
X137539591Y-79297085D02*
G01*
X137573569Y-79307393D01*
X137604890Y-79324134D01*
X137632339Y-79346661D01*
X137654866Y-79374110D01*
X137671607Y-79405431D01*
X137681915Y-79439409D01*
X137686000Y-79480890D01*
X137686000Y-80082110D01*
X137681915Y-80123591D01*
X137671607Y-80157569D01*
X137654866Y-80188890D01*
X137632339Y-80216339D01*
X137604890Y-80238866D01*
X137573569Y-80255607D01*
X137539591Y-80265915D01*
X137498110Y-80270000D01*
X136821890Y-80270000D01*
X136780409Y-80265915D01*
X136746431Y-80255607D01*
X136715110Y-80238866D01*
X136687661Y-80216339D01*
X136665134Y-80188890D01*
X136648393Y-80157569D01*
X136638085Y-80123591D01*
X136634000Y-80082110D01*
X136634000Y-79480890D01*
X136638085Y-79439409D01*
X136648393Y-79405431D01*
X136665134Y-79374110D01*
X136687661Y-79346661D01*
X136715110Y-79324134D01*
X136746431Y-79307393D01*
X136780409Y-79297085D01*
X136821890Y-79293000D01*
X137498110Y-79293000D01*
X137539591Y-79297085D01*
X137539591Y-79297085D01*
G37*
G36*
X121408000Y-79974000D02*
G01*
X119956000Y-79974000D01*
X119956000Y-78522000D01*
X121408000Y-78522000D01*
X121408000Y-79974000D01*
X121408000Y-79974000D01*
G37*
G36*
X122753213Y-78525502D02*
G01*
X122824321Y-78532505D01*
X122961172Y-78574019D01*
X122961175Y-78574020D01*
X123087294Y-78641432D01*
X123197843Y-78732157D01*
X123288568Y-78842706D01*
X123355980Y-78968825D01*
X123355981Y-78968828D01*
X123397495Y-79105679D01*
X123411512Y-79248000D01*
X123397495Y-79390321D01*
X123367379Y-79489599D01*
X123355980Y-79527175D01*
X123288568Y-79653294D01*
X123197843Y-79763843D01*
X123087294Y-79854568D01*
X122961175Y-79921980D01*
X122961172Y-79921981D01*
X122824321Y-79963495D01*
X122753213Y-79970498D01*
X122717660Y-79974000D01*
X122646340Y-79974000D01*
X122610787Y-79970498D01*
X122539679Y-79963495D01*
X122402828Y-79921981D01*
X122402825Y-79921980D01*
X122276706Y-79854568D01*
X122166157Y-79763843D01*
X122075432Y-79653294D01*
X122008020Y-79527175D01*
X121996621Y-79489599D01*
X121966505Y-79390321D01*
X121952488Y-79248000D01*
X121966505Y-79105679D01*
X122008019Y-78968828D01*
X122008020Y-78968825D01*
X122075432Y-78842706D01*
X122166157Y-78732157D01*
X122276706Y-78641432D01*
X122402825Y-78574020D01*
X122402828Y-78574019D01*
X122539679Y-78532505D01*
X122610787Y-78525502D01*
X122646340Y-78522000D01*
X122717660Y-78522000D01*
X122753213Y-78525502D01*
X122753213Y-78525502D01*
G37*
G36*
X131939980Y-79275320D02*
G01*
X127140020Y-79275320D01*
X127140020Y-78023320D01*
X131939980Y-78023320D01*
X131939980Y-79275320D01*
X131939980Y-79275320D01*
G37*
G36*
X137539591Y-77722085D02*
G01*
X137573569Y-77732393D01*
X137604890Y-77749134D01*
X137632339Y-77771661D01*
X137654866Y-77799110D01*
X137671607Y-77830431D01*
X137681915Y-77864409D01*
X137686000Y-77905890D01*
X137686000Y-78507110D01*
X137681915Y-78548591D01*
X137671607Y-78582569D01*
X137654866Y-78613890D01*
X137632339Y-78641339D01*
X137604890Y-78663866D01*
X137573569Y-78680607D01*
X137539591Y-78690915D01*
X137498110Y-78695000D01*
X136821890Y-78695000D01*
X136780409Y-78690915D01*
X136746431Y-78680607D01*
X136715110Y-78663866D01*
X136687661Y-78641339D01*
X136665134Y-78613890D01*
X136648393Y-78582569D01*
X136638085Y-78548591D01*
X136634000Y-78507110D01*
X136634000Y-77905890D01*
X136638085Y-77864409D01*
X136648393Y-77830431D01*
X136665134Y-77799110D01*
X136687661Y-77771661D01*
X136715110Y-77749134D01*
X136746431Y-77732393D01*
X136780409Y-77722085D01*
X136821890Y-77718000D01*
X137498110Y-77718000D01*
X137539591Y-77722085D01*
X137539591Y-77722085D01*
G37*
G36*
X136015591Y-77722085D02*
G01*
X136049569Y-77732393D01*
X136080890Y-77749134D01*
X136108339Y-77771661D01*
X136130866Y-77799110D01*
X136147607Y-77830431D01*
X136157915Y-77864409D01*
X136162000Y-77905890D01*
X136162000Y-78507110D01*
X136157915Y-78548591D01*
X136147607Y-78582569D01*
X136130866Y-78613890D01*
X136108339Y-78641339D01*
X136080890Y-78663866D01*
X136049569Y-78680607D01*
X136015591Y-78690915D01*
X135974110Y-78695000D01*
X135297890Y-78695000D01*
X135256409Y-78690915D01*
X135222431Y-78680607D01*
X135191110Y-78663866D01*
X135163661Y-78641339D01*
X135141134Y-78613890D01*
X135124393Y-78582569D01*
X135114085Y-78548591D01*
X135110000Y-78507110D01*
X135110000Y-77905890D01*
X135114085Y-77864409D01*
X135124393Y-77830431D01*
X135141134Y-77799110D01*
X135163661Y-77771661D01*
X135191110Y-77749134D01*
X135222431Y-77732393D01*
X135256409Y-77722085D01*
X135297890Y-77718000D01*
X135974110Y-77718000D01*
X136015591Y-77722085D01*
X136015591Y-77722085D01*
G37*
G36*
X134259000Y-75423340D02*
G01*
X133457000Y-75423340D01*
X133457000Y-74621340D01*
X134259000Y-74621340D01*
X134259000Y-75423340D01*
X134259000Y-75423340D01*
G37*
G36*
X125591040Y-75423340D02*
G01*
X124789040Y-75423340D01*
X124789040Y-74621340D01*
X125591040Y-74621340D01*
X125591040Y-75423340D01*
X125591040Y-75423340D01*
G37*
M02*
