G04 #@! TF.GenerationSoftware,KiCad,Pcbnew,(5.1.4)-1*
G04 #@! TF.CreationDate,2020-01-29T15:42:18+01:00*
G04 #@! TF.ProjectId,BLE-node,424c452d-6e6f-4646-952e-6b696361645f,rev?*
G04 #@! TF.SameCoordinates,Original*
G04 #@! TF.FileFunction,Copper,L2,Bot*
G04 #@! TF.FilePolarity,Positive*
%FSLAX46Y46*%
G04 Gerber Fmt 4.6, Leading zero omitted, Abs format (unit mm)*
G04 Created by KiCad (PCBNEW (5.1.4)-1) date 2020-01-29 15:42:18*
%MOMM*%
%LPD*%
G04 APERTURE LIST*
%ADD10O,1.350000X1.350000*%
%ADD11R,1.350000X1.350000*%
%ADD12R,4.500000X2.400000*%
%ADD13C,0.100000*%
%ADD14C,3.050000*%
%ADD15C,0.450000*%
%ADD16C,0.088900*%
%ADD17C,0.127000*%
G04 APERTURE END LIST*
D10*
X122682000Y-81248000D03*
X120682000Y-81248000D03*
X122682000Y-79248000D03*
D11*
X120682000Y-79248000D03*
D10*
X118904000Y-91694000D03*
D11*
X120904000Y-91694000D03*
D12*
X119920000Y-86868000D03*
D13*
G36*
X141798054Y-85349256D02*
G01*
X141924181Y-85367966D01*
X142047867Y-85398947D01*
X142167921Y-85441903D01*
X142283186Y-85496420D01*
X142392552Y-85561972D01*
X142494967Y-85637928D01*
X142589444Y-85723556D01*
X142675072Y-85818033D01*
X142751028Y-85920448D01*
X142816580Y-86029814D01*
X142871097Y-86145079D01*
X142914053Y-86265133D01*
X142945034Y-86388819D01*
X142963744Y-86514946D01*
X142970000Y-86642300D01*
X142970000Y-87093700D01*
X142963744Y-87221054D01*
X142945034Y-87347181D01*
X142914053Y-87470867D01*
X142871097Y-87590921D01*
X142816580Y-87706186D01*
X142751028Y-87815552D01*
X142675072Y-87917967D01*
X142589444Y-88012444D01*
X142494967Y-88098072D01*
X142392552Y-88174028D01*
X142283186Y-88239580D01*
X142167921Y-88294097D01*
X142047867Y-88337053D01*
X141924181Y-88368034D01*
X141798054Y-88386744D01*
X141670700Y-88393000D01*
X140869300Y-88393000D01*
X140741946Y-88386744D01*
X140615819Y-88368034D01*
X140492133Y-88337053D01*
X140372079Y-88294097D01*
X140256814Y-88239580D01*
X140147448Y-88174028D01*
X140045033Y-88098072D01*
X139950556Y-88012444D01*
X139864928Y-87917967D01*
X139788972Y-87815552D01*
X139723420Y-87706186D01*
X139668903Y-87590921D01*
X139625947Y-87470867D01*
X139594966Y-87347181D01*
X139576256Y-87221054D01*
X139570000Y-87093700D01*
X139570000Y-86642300D01*
X139576256Y-86514946D01*
X139594966Y-86388819D01*
X139625947Y-86265133D01*
X139668903Y-86145079D01*
X139723420Y-86029814D01*
X139788972Y-85920448D01*
X139864928Y-85818033D01*
X139950556Y-85723556D01*
X140045033Y-85637928D01*
X140147448Y-85561972D01*
X140256814Y-85496420D01*
X140372079Y-85441903D01*
X140492133Y-85398947D01*
X140615819Y-85367966D01*
X140741946Y-85349256D01*
X140869300Y-85343000D01*
X141670700Y-85343000D01*
X141798054Y-85349256D01*
X141798054Y-85349256D01*
G37*
D14*
X141270000Y-86868000D03*
D15*
X135255000Y-75438000D03*
X135255000Y-76835000D03*
X136398000Y-76835000D03*
X138557000Y-78232000D03*
X129032000Y-92710000D03*
X130048000Y-92329000D03*
X130048000Y-91059000D03*
X134112000Y-90424000D03*
X129540000Y-90170000D03*
X124841000Y-90297000D03*
X125984000Y-89789000D03*
X122428000Y-90043000D03*
X121158000Y-95250000D03*
X123063000Y-96774000D03*
X125222000Y-97663000D03*
X129540000Y-97663000D03*
X133985000Y-97536000D03*
X135763000Y-96647000D03*
X137922000Y-94869000D03*
X139319000Y-92964000D03*
X140716000Y-91186000D03*
X141986000Y-83058000D03*
X140589000Y-79883000D03*
X135636000Y-81788000D03*
X135128000Y-86995000D03*
X135128000Y-86995000D03*
X136652000Y-87376000D03*
X119888000Y-83312000D03*
X118491000Y-81026000D03*
X122047000Y-76835000D03*
X122936000Y-76073000D03*
X127889000Y-84836000D03*
X127889000Y-82550000D03*
X131318000Y-82423000D03*
X131318000Y-84836000D03*
X126619000Y-87503000D03*
X132334000Y-87503000D03*
X127000000Y-79629000D03*
X128397000Y-79629000D03*
X129921000Y-79629000D03*
X123317000Y-85725000D03*
X123444000Y-90551000D03*
X127000000Y-94488000D03*
X128016000Y-94488000D03*
X125476000Y-96774000D03*
X133858000Y-96012000D03*
X121920000Y-92710000D03*
X122428000Y-93218000D03*
X142240000Y-87884000D03*
X140462000Y-87884000D03*
X142240000Y-86106000D03*
X141351000Y-86995000D03*
X140462000Y-86106000D03*
X125415040Y-81575400D03*
X123825000Y-82296000D03*
X121838000Y-88900000D03*
X123825000Y-86868000D03*
X123825000Y-87884000D03*
X124714000Y-89408000D03*
X122809000Y-95123000D03*
X122809000Y-92202000D03*
X126492000Y-91036350D03*
X126492000Y-90297000D03*
X131953000Y-89789000D03*
X134493000Y-89789000D03*
X135636000Y-85979000D03*
X135636000Y-83439000D03*
X130683000Y-92837000D03*
X130683000Y-94338350D03*
D16*
X121838000Y-88900000D02*
X122668000Y-88900000D01*
X123126900Y-88441100D02*
X123126900Y-87566100D01*
X123600001Y-87092999D02*
X123825000Y-86868000D01*
X122668000Y-88900000D02*
X123126900Y-88441100D01*
X123126900Y-87566100D02*
X123600001Y-87092999D01*
X124545600Y-81575400D02*
X123825000Y-82296000D01*
X125415040Y-81575400D02*
X124545600Y-81575400D01*
X123825000Y-87884000D02*
X124714000Y-88773000D01*
X124714000Y-88773000D02*
X124714000Y-89408000D01*
X122809000Y-95123000D02*
X122809000Y-92202000D01*
X126492000Y-91036350D02*
X126492000Y-90297000D01*
X131953000Y-89789000D02*
X134493000Y-89789000D01*
X135636000Y-85979000D02*
X135636000Y-83439000D01*
X130683000Y-92837000D02*
X130683000Y-94338350D01*
D17*
G36*
X133742487Y-74286463D02*
G01*
X135066370Y-74813946D01*
X136325462Y-75481474D01*
X137505000Y-76281221D01*
X138591156Y-77203810D01*
X139571196Y-78238425D01*
X140433629Y-79372936D01*
X141168344Y-80594042D01*
X141766727Y-81887427D01*
X142221763Y-83237926D01*
X142528117Y-84629706D01*
X142604300Y-85330192D01*
X142567566Y-85300045D01*
X142288472Y-85150866D01*
X141985637Y-85059003D01*
X141670700Y-85027984D01*
X140869300Y-85027984D01*
X140554363Y-85059003D01*
X140251528Y-85150866D01*
X139972434Y-85300045D01*
X139727806Y-85500806D01*
X139527045Y-85745434D01*
X139377866Y-86024528D01*
X139286003Y-86327363D01*
X139254984Y-86642300D01*
X139254984Y-87093700D01*
X139286003Y-87408637D01*
X139377866Y-87711472D01*
X139527045Y-87990566D01*
X139727806Y-88235194D01*
X139972434Y-88435955D01*
X140251528Y-88585134D01*
X140554363Y-88676997D01*
X140869300Y-88708016D01*
X141670700Y-88708016D01*
X141985637Y-88676997D01*
X142288472Y-88585134D01*
X142567566Y-88435955D01*
X142578267Y-88427173D01*
X142528117Y-88888294D01*
X142221763Y-90280074D01*
X141766727Y-91630573D01*
X141168344Y-92923958D01*
X140433629Y-94145064D01*
X139571196Y-95279575D01*
X138591156Y-96314190D01*
X137505000Y-97236779D01*
X136325462Y-98036526D01*
X135066370Y-98704054D01*
X133742487Y-99231537D01*
X132369333Y-99612791D01*
X130963008Y-99843347D01*
X129540000Y-99920500D01*
X128116992Y-99843347D01*
X126710667Y-99612791D01*
X125337513Y-99231537D01*
X124013630Y-98704054D01*
X122754538Y-98036526D01*
X121575000Y-97236779D01*
X120488844Y-96314190D01*
X119508804Y-95279575D01*
X118646371Y-94145064D01*
X117911656Y-92923958D01*
X117625963Y-92306441D01*
X117827502Y-92306441D01*
X117967668Y-92504687D01*
X118143817Y-92671779D01*
X118291562Y-92770477D01*
X118467500Y-92701099D01*
X118467500Y-92130500D01*
X117885824Y-92130500D01*
X117827502Y-92306441D01*
X117625963Y-92306441D01*
X117313273Y-91630573D01*
X117128289Y-91081559D01*
X117827502Y-91081559D01*
X117885824Y-91257500D01*
X118467500Y-91257500D01*
X118467500Y-90686901D01*
X119340500Y-90686901D01*
X119340500Y-91257500D01*
X119360500Y-91257500D01*
X119360500Y-92130500D01*
X119340500Y-92130500D01*
X119340500Y-92701099D01*
X119516438Y-92770477D01*
X119664183Y-92671779D01*
X119840332Y-92504687D01*
X119916709Y-92396663D01*
X119920037Y-92430457D01*
X119937963Y-92489551D01*
X119967074Y-92544014D01*
X120006250Y-92591750D01*
X120053986Y-92630926D01*
X120108449Y-92660037D01*
X120167543Y-92677963D01*
X120229000Y-92684016D01*
X121579000Y-92684016D01*
X121640457Y-92677963D01*
X121699551Y-92660037D01*
X121754014Y-92630926D01*
X121801750Y-92591750D01*
X121840926Y-92544014D01*
X121870037Y-92489551D01*
X121887963Y-92430457D01*
X121894016Y-92369000D01*
X121894016Y-92148962D01*
X122270500Y-92148962D01*
X122270500Y-92255038D01*
X122291194Y-92359075D01*
X122331787Y-92457076D01*
X122390719Y-92545274D01*
X122451051Y-92605606D01*
X122451050Y-94719395D01*
X122390719Y-94779726D01*
X122331787Y-94867924D01*
X122291194Y-94965925D01*
X122270500Y-95069962D01*
X122270500Y-95176038D01*
X122291194Y-95280075D01*
X122331787Y-95378076D01*
X122390719Y-95466274D01*
X122465726Y-95541281D01*
X122553924Y-95600213D01*
X122651925Y-95640806D01*
X122755962Y-95661500D01*
X122862038Y-95661500D01*
X122966075Y-95640806D01*
X123064076Y-95600213D01*
X123152274Y-95541281D01*
X123227281Y-95466274D01*
X123286213Y-95378076D01*
X123326806Y-95280075D01*
X123347500Y-95176038D01*
X123347500Y-95069962D01*
X123326806Y-94965925D01*
X123286213Y-94867924D01*
X123227281Y-94779726D01*
X123166950Y-94719395D01*
X123166950Y-92783962D01*
X130144500Y-92783962D01*
X130144500Y-92890038D01*
X130165194Y-92994075D01*
X130205787Y-93092076D01*
X130264719Y-93180274D01*
X130325050Y-93240605D01*
X130325051Y-93934744D01*
X130264719Y-93995076D01*
X130205787Y-94083274D01*
X130165194Y-94181275D01*
X130144500Y-94285312D01*
X130144500Y-94391388D01*
X130165194Y-94495425D01*
X130205787Y-94593426D01*
X130264719Y-94681624D01*
X130339726Y-94756631D01*
X130427924Y-94815563D01*
X130525925Y-94856156D01*
X130629962Y-94876850D01*
X130736038Y-94876850D01*
X130840075Y-94856156D01*
X130938076Y-94815563D01*
X131026274Y-94756631D01*
X131101281Y-94681624D01*
X131160213Y-94593426D01*
X131200806Y-94495425D01*
X131221500Y-94391388D01*
X131221500Y-94285312D01*
X131200806Y-94181275D01*
X131160213Y-94083274D01*
X131101281Y-93995076D01*
X131040950Y-93934745D01*
X131040950Y-93240605D01*
X131101281Y-93180274D01*
X131160213Y-93092076D01*
X131200806Y-92994075D01*
X131221500Y-92890038D01*
X131221500Y-92783962D01*
X131200806Y-92679925D01*
X131160213Y-92581924D01*
X131101281Y-92493726D01*
X131026274Y-92418719D01*
X130938076Y-92359787D01*
X130840075Y-92319194D01*
X130736038Y-92298500D01*
X130629962Y-92298500D01*
X130525925Y-92319194D01*
X130427924Y-92359787D01*
X130339726Y-92418719D01*
X130264719Y-92493726D01*
X130205787Y-92581924D01*
X130165194Y-92679925D01*
X130144500Y-92783962D01*
X123166950Y-92783962D01*
X123166950Y-92605605D01*
X123227281Y-92545274D01*
X123286213Y-92457076D01*
X123326806Y-92359075D01*
X123347500Y-92255038D01*
X123347500Y-92148962D01*
X123326806Y-92044925D01*
X123286213Y-91946924D01*
X123227281Y-91858726D01*
X123152274Y-91783719D01*
X123064076Y-91724787D01*
X122966075Y-91684194D01*
X122862038Y-91663500D01*
X122755962Y-91663500D01*
X122651925Y-91684194D01*
X122553924Y-91724787D01*
X122465726Y-91783719D01*
X122390719Y-91858726D01*
X122331787Y-91946924D01*
X122291194Y-92044925D01*
X122270500Y-92148962D01*
X121894016Y-92148962D01*
X121894016Y-91019000D01*
X121887963Y-90957543D01*
X121870037Y-90898449D01*
X121840926Y-90843986D01*
X121801750Y-90796250D01*
X121754014Y-90757074D01*
X121699551Y-90727963D01*
X121640457Y-90710037D01*
X121579000Y-90703984D01*
X120229000Y-90703984D01*
X120167543Y-90710037D01*
X120108449Y-90727963D01*
X120053986Y-90757074D01*
X120006250Y-90796250D01*
X119967074Y-90843986D01*
X119937963Y-90898449D01*
X119920037Y-90957543D01*
X119916709Y-90991337D01*
X119840332Y-90883313D01*
X119664183Y-90716221D01*
X119516438Y-90617523D01*
X119340500Y-90686901D01*
X118467500Y-90686901D01*
X118291562Y-90617523D01*
X118143817Y-90716221D01*
X117967668Y-90883313D01*
X117827502Y-91081559D01*
X117128289Y-91081559D01*
X116858237Y-90280074D01*
X116850289Y-90243962D01*
X125953500Y-90243962D01*
X125953500Y-90350038D01*
X125974194Y-90454075D01*
X126014787Y-90552076D01*
X126073719Y-90640274D01*
X126100120Y-90666675D01*
X126073719Y-90693076D01*
X126014787Y-90781274D01*
X125974194Y-90879275D01*
X125953500Y-90983312D01*
X125953500Y-91089388D01*
X125974194Y-91193425D01*
X126014787Y-91291426D01*
X126073719Y-91379624D01*
X126148726Y-91454631D01*
X126236924Y-91513563D01*
X126334925Y-91554156D01*
X126438962Y-91574850D01*
X126545038Y-91574850D01*
X126649075Y-91554156D01*
X126747076Y-91513563D01*
X126835274Y-91454631D01*
X126910281Y-91379624D01*
X126969213Y-91291426D01*
X127009806Y-91193425D01*
X127030500Y-91089388D01*
X127030500Y-90983312D01*
X127009806Y-90879275D01*
X126969213Y-90781274D01*
X126910281Y-90693076D01*
X126883880Y-90666675D01*
X126910281Y-90640274D01*
X126969213Y-90552076D01*
X127009806Y-90454075D01*
X127030500Y-90350038D01*
X127030500Y-90243962D01*
X127009806Y-90139925D01*
X126969213Y-90041924D01*
X126910281Y-89953726D01*
X126835274Y-89878719D01*
X126747076Y-89819787D01*
X126649075Y-89779194D01*
X126545038Y-89758500D01*
X126438962Y-89758500D01*
X126334925Y-89779194D01*
X126236924Y-89819787D01*
X126148726Y-89878719D01*
X126073719Y-89953726D01*
X126014787Y-90041924D01*
X125974194Y-90139925D01*
X125953500Y-90243962D01*
X116850289Y-90243962D01*
X116551883Y-88888294D01*
X116547388Y-88846962D01*
X121299500Y-88846962D01*
X121299500Y-88953038D01*
X121320194Y-89057075D01*
X121360787Y-89155076D01*
X121419719Y-89243274D01*
X121494726Y-89318281D01*
X121582924Y-89377213D01*
X121680925Y-89417806D01*
X121784962Y-89438500D01*
X121891038Y-89438500D01*
X121995075Y-89417806D01*
X122093076Y-89377213D01*
X122181274Y-89318281D01*
X122241605Y-89257950D01*
X122650427Y-89257950D01*
X122668000Y-89259681D01*
X122685573Y-89257950D01*
X122685575Y-89257950D01*
X122738170Y-89252770D01*
X122805644Y-89232302D01*
X122867828Y-89199064D01*
X122922333Y-89154333D01*
X122933541Y-89140676D01*
X123367586Y-88706632D01*
X123381232Y-88695433D01*
X123392432Y-88681786D01*
X123392436Y-88681782D01*
X123425964Y-88640929D01*
X123459202Y-88578744D01*
X123479670Y-88511271D01*
X123486581Y-88441100D01*
X123484850Y-88423525D01*
X123484850Y-88304368D01*
X123569924Y-88361213D01*
X123667925Y-88401806D01*
X123771962Y-88422500D01*
X123857283Y-88422500D01*
X124356050Y-88921268D01*
X124356050Y-89004395D01*
X124295719Y-89064726D01*
X124236787Y-89152924D01*
X124196194Y-89250925D01*
X124175500Y-89354962D01*
X124175500Y-89461038D01*
X124196194Y-89565075D01*
X124236787Y-89663076D01*
X124295719Y-89751274D01*
X124370726Y-89826281D01*
X124458924Y-89885213D01*
X124556925Y-89925806D01*
X124660962Y-89946500D01*
X124767038Y-89946500D01*
X124871075Y-89925806D01*
X124969076Y-89885213D01*
X125057274Y-89826281D01*
X125132281Y-89751274D01*
X125142512Y-89735962D01*
X131414500Y-89735962D01*
X131414500Y-89842038D01*
X131435194Y-89946075D01*
X131475787Y-90044076D01*
X131534719Y-90132274D01*
X131609726Y-90207281D01*
X131697924Y-90266213D01*
X131795925Y-90306806D01*
X131899962Y-90327500D01*
X132006038Y-90327500D01*
X132110075Y-90306806D01*
X132208076Y-90266213D01*
X132296274Y-90207281D01*
X132356605Y-90146950D01*
X134089395Y-90146950D01*
X134149726Y-90207281D01*
X134237924Y-90266213D01*
X134335925Y-90306806D01*
X134439962Y-90327500D01*
X134546038Y-90327500D01*
X134650075Y-90306806D01*
X134748076Y-90266213D01*
X134836274Y-90207281D01*
X134911281Y-90132274D01*
X134970213Y-90044076D01*
X135010806Y-89946075D01*
X135031500Y-89842038D01*
X135031500Y-89735962D01*
X135010806Y-89631925D01*
X134970213Y-89533924D01*
X134911281Y-89445726D01*
X134836274Y-89370719D01*
X134748076Y-89311787D01*
X134650075Y-89271194D01*
X134546038Y-89250500D01*
X134439962Y-89250500D01*
X134335925Y-89271194D01*
X134237924Y-89311787D01*
X134149726Y-89370719D01*
X134089395Y-89431050D01*
X132356605Y-89431050D01*
X132296274Y-89370719D01*
X132208076Y-89311787D01*
X132110075Y-89271194D01*
X132006038Y-89250500D01*
X131899962Y-89250500D01*
X131795925Y-89271194D01*
X131697924Y-89311787D01*
X131609726Y-89370719D01*
X131534719Y-89445726D01*
X131475787Y-89533924D01*
X131435194Y-89631925D01*
X131414500Y-89735962D01*
X125142512Y-89735962D01*
X125191213Y-89663076D01*
X125231806Y-89565075D01*
X125252500Y-89461038D01*
X125252500Y-89354962D01*
X125231806Y-89250925D01*
X125191213Y-89152924D01*
X125132281Y-89064726D01*
X125071950Y-89004395D01*
X125071950Y-88790575D01*
X125073681Y-88773000D01*
X125066770Y-88702829D01*
X125046302Y-88635356D01*
X125027904Y-88600936D01*
X125013064Y-88573172D01*
X124991774Y-88547230D01*
X124979536Y-88532318D01*
X124979532Y-88532314D01*
X124968332Y-88518667D01*
X124954686Y-88507468D01*
X124363500Y-87916283D01*
X124363500Y-87830962D01*
X124342806Y-87726925D01*
X124302213Y-87628924D01*
X124243281Y-87540726D01*
X124168274Y-87465719D01*
X124080076Y-87406787D01*
X124005749Y-87376000D01*
X124080076Y-87345213D01*
X124168274Y-87286281D01*
X124243281Y-87211274D01*
X124302213Y-87123076D01*
X124342806Y-87025075D01*
X124363500Y-86921038D01*
X124363500Y-86814962D01*
X124342806Y-86710925D01*
X124302213Y-86612924D01*
X124243281Y-86524726D01*
X124168274Y-86449719D01*
X124080076Y-86390787D01*
X123982075Y-86350194D01*
X123878038Y-86329500D01*
X123771962Y-86329500D01*
X123667925Y-86350194D01*
X123569924Y-86390787D01*
X123481726Y-86449719D01*
X123406719Y-86524726D01*
X123347787Y-86612924D01*
X123307194Y-86710925D01*
X123286500Y-86814962D01*
X123286500Y-86900282D01*
X122886219Y-87300564D01*
X122872568Y-87311767D01*
X122861365Y-87325418D01*
X122861364Y-87325419D01*
X122827837Y-87366272D01*
X122794598Y-87428457D01*
X122774131Y-87495930D01*
X122767219Y-87566100D01*
X122768951Y-87583683D01*
X122768950Y-88292832D01*
X122519733Y-88542050D01*
X122241605Y-88542050D01*
X122181274Y-88481719D01*
X122093076Y-88422787D01*
X121995075Y-88382194D01*
X121891038Y-88361500D01*
X121784962Y-88361500D01*
X121680925Y-88382194D01*
X121582924Y-88422787D01*
X121494726Y-88481719D01*
X121419719Y-88556726D01*
X121360787Y-88644924D01*
X121320194Y-88742925D01*
X121299500Y-88846962D01*
X116547388Y-88846962D01*
X116397802Y-87471549D01*
X116397802Y-86046451D01*
X116551883Y-84629706D01*
X116825651Y-83385962D01*
X135097500Y-83385962D01*
X135097500Y-83492038D01*
X135118194Y-83596075D01*
X135158787Y-83694076D01*
X135217719Y-83782274D01*
X135278051Y-83842606D01*
X135278050Y-85575395D01*
X135217719Y-85635726D01*
X135158787Y-85723924D01*
X135118194Y-85821925D01*
X135097500Y-85925962D01*
X135097500Y-86032038D01*
X135118194Y-86136075D01*
X135158787Y-86234076D01*
X135217719Y-86322274D01*
X135292726Y-86397281D01*
X135380924Y-86456213D01*
X135478925Y-86496806D01*
X135582962Y-86517500D01*
X135689038Y-86517500D01*
X135793075Y-86496806D01*
X135891076Y-86456213D01*
X135979274Y-86397281D01*
X136054281Y-86322274D01*
X136113213Y-86234076D01*
X136153806Y-86136075D01*
X136174500Y-86032038D01*
X136174500Y-85925962D01*
X136153806Y-85821925D01*
X136113213Y-85723924D01*
X136054281Y-85635726D01*
X135993950Y-85575395D01*
X135993950Y-83842605D01*
X136054281Y-83782274D01*
X136113213Y-83694076D01*
X136153806Y-83596075D01*
X136174500Y-83492038D01*
X136174500Y-83385962D01*
X136153806Y-83281925D01*
X136113213Y-83183924D01*
X136054281Y-83095726D01*
X135979274Y-83020719D01*
X135891076Y-82961787D01*
X135793075Y-82921194D01*
X135689038Y-82900500D01*
X135582962Y-82900500D01*
X135478925Y-82921194D01*
X135380924Y-82961787D01*
X135292726Y-83020719D01*
X135217719Y-83095726D01*
X135158787Y-83183924D01*
X135118194Y-83281925D01*
X135097500Y-83385962D01*
X116825651Y-83385962D01*
X116858237Y-83237926D01*
X117193479Y-82242962D01*
X123286500Y-82242962D01*
X123286500Y-82349038D01*
X123307194Y-82453075D01*
X123347787Y-82551076D01*
X123406719Y-82639274D01*
X123481726Y-82714281D01*
X123569924Y-82773213D01*
X123667925Y-82813806D01*
X123771962Y-82834500D01*
X123878038Y-82834500D01*
X123982075Y-82813806D01*
X124080076Y-82773213D01*
X124168274Y-82714281D01*
X124243281Y-82639274D01*
X124302213Y-82551076D01*
X124342806Y-82453075D01*
X124363500Y-82349038D01*
X124363500Y-82263717D01*
X124693868Y-81933350D01*
X125011435Y-81933350D01*
X125071766Y-81993681D01*
X125159964Y-82052613D01*
X125257965Y-82093206D01*
X125362002Y-82113900D01*
X125468078Y-82113900D01*
X125572115Y-82093206D01*
X125670116Y-82052613D01*
X125758314Y-81993681D01*
X125833321Y-81918674D01*
X125892253Y-81830476D01*
X125932846Y-81732475D01*
X125953540Y-81628438D01*
X125953540Y-81522362D01*
X125932846Y-81418325D01*
X125892253Y-81320324D01*
X125833321Y-81232126D01*
X125758314Y-81157119D01*
X125670116Y-81098187D01*
X125572115Y-81057594D01*
X125468078Y-81036900D01*
X125362002Y-81036900D01*
X125257965Y-81057594D01*
X125159964Y-81098187D01*
X125071766Y-81157119D01*
X125011435Y-81217450D01*
X124563165Y-81217450D01*
X124545599Y-81215720D01*
X124528034Y-81217450D01*
X124528025Y-81217450D01*
X124475430Y-81222630D01*
X124407956Y-81243098D01*
X124345772Y-81276336D01*
X124291267Y-81321067D01*
X124280064Y-81334719D01*
X123857283Y-81757500D01*
X123771962Y-81757500D01*
X123667925Y-81778194D01*
X123569924Y-81818787D01*
X123481726Y-81877719D01*
X123406719Y-81952726D01*
X123347787Y-82040924D01*
X123307194Y-82138925D01*
X123286500Y-82242962D01*
X117193479Y-82242962D01*
X117313273Y-81887427D01*
X117911656Y-80594042D01*
X118315408Y-79923000D01*
X119440773Y-79923000D01*
X119451653Y-80033465D01*
X119483874Y-80139686D01*
X119536199Y-80237579D01*
X119606617Y-80323383D01*
X119692421Y-80393801D01*
X119790314Y-80446126D01*
X119896535Y-80478347D01*
X120007000Y-80489227D01*
X120049846Y-80488030D01*
X119979644Y-80545644D01*
X119856116Y-80696162D01*
X119764327Y-80867887D01*
X119707804Y-81054220D01*
X119688718Y-81248000D01*
X119707804Y-81441780D01*
X119764327Y-81628113D01*
X119856116Y-81799838D01*
X119979644Y-81950356D01*
X120130162Y-82073884D01*
X120301887Y-82165673D01*
X120488220Y-82222196D01*
X120633448Y-82236500D01*
X120730552Y-82236500D01*
X120875780Y-82222196D01*
X121062113Y-82165673D01*
X121233838Y-82073884D01*
X121384356Y-81950356D01*
X121507884Y-81799838D01*
X121599673Y-81628113D01*
X121656196Y-81441780D01*
X121675282Y-81248000D01*
X121688718Y-81248000D01*
X121707804Y-81441780D01*
X121764327Y-81628113D01*
X121856116Y-81799838D01*
X121979644Y-81950356D01*
X122130162Y-82073884D01*
X122301887Y-82165673D01*
X122488220Y-82222196D01*
X122633448Y-82236500D01*
X122730552Y-82236500D01*
X122875780Y-82222196D01*
X123062113Y-82165673D01*
X123233838Y-82073884D01*
X123384356Y-81950356D01*
X123507884Y-81799838D01*
X123599673Y-81628113D01*
X123656196Y-81441780D01*
X123675282Y-81248000D01*
X123656196Y-81054220D01*
X123599673Y-80867887D01*
X123507884Y-80696162D01*
X123384356Y-80545644D01*
X123233838Y-80422116D01*
X123062113Y-80330327D01*
X122875780Y-80273804D01*
X122730552Y-80259500D01*
X122633448Y-80259500D01*
X122488220Y-80273804D01*
X122301887Y-80330327D01*
X122130162Y-80422116D01*
X121979644Y-80545644D01*
X121856116Y-80696162D01*
X121764327Y-80867887D01*
X121707804Y-81054220D01*
X121688718Y-81248000D01*
X121675282Y-81248000D01*
X121656196Y-81054220D01*
X121599673Y-80867887D01*
X121507884Y-80696162D01*
X121384356Y-80545644D01*
X121314154Y-80488030D01*
X121357000Y-80489227D01*
X121467465Y-80478347D01*
X121573686Y-80446126D01*
X121671579Y-80393801D01*
X121757383Y-80323383D01*
X121827801Y-80237579D01*
X121880126Y-80139686D01*
X121912347Y-80033465D01*
X121923227Y-79923000D01*
X121922030Y-79880154D01*
X121979644Y-79950356D01*
X122130162Y-80073884D01*
X122301887Y-80165673D01*
X122488220Y-80222196D01*
X122633448Y-80236500D01*
X122730552Y-80236500D01*
X122875780Y-80222196D01*
X123062113Y-80165673D01*
X123233838Y-80073884D01*
X123384356Y-79950356D01*
X123507884Y-79799838D01*
X123599673Y-79628113D01*
X123656196Y-79441780D01*
X123675282Y-79248000D01*
X123656196Y-79054220D01*
X123599673Y-78867887D01*
X123507884Y-78696162D01*
X123384356Y-78545644D01*
X123233838Y-78422116D01*
X123062113Y-78330327D01*
X122875780Y-78273804D01*
X122730552Y-78259500D01*
X122633448Y-78259500D01*
X122488220Y-78273804D01*
X122301887Y-78330327D01*
X122130162Y-78422116D01*
X121979644Y-78545644D01*
X121922030Y-78615846D01*
X121923227Y-78573000D01*
X121912347Y-78462535D01*
X121880126Y-78356314D01*
X121827801Y-78258421D01*
X121757383Y-78172617D01*
X121671579Y-78102199D01*
X121573686Y-78049874D01*
X121467465Y-78017653D01*
X121357000Y-78006773D01*
X121259375Y-78009500D01*
X121118500Y-78150375D01*
X121118500Y-78811500D01*
X121138500Y-78811500D01*
X121138500Y-79684500D01*
X121118500Y-79684500D01*
X121118500Y-79704500D01*
X120245500Y-79704500D01*
X120245500Y-79684500D01*
X119584375Y-79684500D01*
X119443500Y-79825375D01*
X119440773Y-79923000D01*
X118315408Y-79923000D01*
X118646371Y-79372936D01*
X119254466Y-78573000D01*
X119440773Y-78573000D01*
X119443500Y-78670625D01*
X119584375Y-78811500D01*
X120245500Y-78811500D01*
X120245500Y-78150375D01*
X120104625Y-78009500D01*
X120007000Y-78006773D01*
X119896535Y-78017653D01*
X119790314Y-78049874D01*
X119692421Y-78102199D01*
X119606617Y-78172617D01*
X119536199Y-78258421D01*
X119483874Y-78356314D01*
X119451653Y-78462535D01*
X119440773Y-78573000D01*
X119254466Y-78573000D01*
X119508804Y-78238425D01*
X120488844Y-77203810D01*
X121575000Y-76281221D01*
X122754538Y-75481474D01*
X124013630Y-74813946D01*
X125337513Y-74286463D01*
X125539500Y-74230382D01*
X125539500Y-77978000D01*
X125540720Y-77990388D01*
X125544334Y-78002300D01*
X125550202Y-78013279D01*
X125558099Y-78022901D01*
X125567721Y-78030798D01*
X125578700Y-78036666D01*
X125590612Y-78040280D01*
X125603000Y-78041500D01*
X133413500Y-78041500D01*
X133425888Y-78040280D01*
X133437800Y-78036666D01*
X133448779Y-78030798D01*
X133458401Y-78022901D01*
X133466298Y-78013279D01*
X133472166Y-78002300D01*
X133475780Y-77990388D01*
X133477000Y-77978000D01*
X133477000Y-74212751D01*
X133742487Y-74286463D01*
X133742487Y-74286463D01*
G37*
X133742487Y-74286463D02*
X135066370Y-74813946D01*
X136325462Y-75481474D01*
X137505000Y-76281221D01*
X138591156Y-77203810D01*
X139571196Y-78238425D01*
X140433629Y-79372936D01*
X141168344Y-80594042D01*
X141766727Y-81887427D01*
X142221763Y-83237926D01*
X142528117Y-84629706D01*
X142604300Y-85330192D01*
X142567566Y-85300045D01*
X142288472Y-85150866D01*
X141985637Y-85059003D01*
X141670700Y-85027984D01*
X140869300Y-85027984D01*
X140554363Y-85059003D01*
X140251528Y-85150866D01*
X139972434Y-85300045D01*
X139727806Y-85500806D01*
X139527045Y-85745434D01*
X139377866Y-86024528D01*
X139286003Y-86327363D01*
X139254984Y-86642300D01*
X139254984Y-87093700D01*
X139286003Y-87408637D01*
X139377866Y-87711472D01*
X139527045Y-87990566D01*
X139727806Y-88235194D01*
X139972434Y-88435955D01*
X140251528Y-88585134D01*
X140554363Y-88676997D01*
X140869300Y-88708016D01*
X141670700Y-88708016D01*
X141985637Y-88676997D01*
X142288472Y-88585134D01*
X142567566Y-88435955D01*
X142578267Y-88427173D01*
X142528117Y-88888294D01*
X142221763Y-90280074D01*
X141766727Y-91630573D01*
X141168344Y-92923958D01*
X140433629Y-94145064D01*
X139571196Y-95279575D01*
X138591156Y-96314190D01*
X137505000Y-97236779D01*
X136325462Y-98036526D01*
X135066370Y-98704054D01*
X133742487Y-99231537D01*
X132369333Y-99612791D01*
X130963008Y-99843347D01*
X129540000Y-99920500D01*
X128116992Y-99843347D01*
X126710667Y-99612791D01*
X125337513Y-99231537D01*
X124013630Y-98704054D01*
X122754538Y-98036526D01*
X121575000Y-97236779D01*
X120488844Y-96314190D01*
X119508804Y-95279575D01*
X118646371Y-94145064D01*
X117911656Y-92923958D01*
X117625963Y-92306441D01*
X117827502Y-92306441D01*
X117967668Y-92504687D01*
X118143817Y-92671779D01*
X118291562Y-92770477D01*
X118467500Y-92701099D01*
X118467500Y-92130500D01*
X117885824Y-92130500D01*
X117827502Y-92306441D01*
X117625963Y-92306441D01*
X117313273Y-91630573D01*
X117128289Y-91081559D01*
X117827502Y-91081559D01*
X117885824Y-91257500D01*
X118467500Y-91257500D01*
X118467500Y-90686901D01*
X119340500Y-90686901D01*
X119340500Y-91257500D01*
X119360500Y-91257500D01*
X119360500Y-92130500D01*
X119340500Y-92130500D01*
X119340500Y-92701099D01*
X119516438Y-92770477D01*
X119664183Y-92671779D01*
X119840332Y-92504687D01*
X119916709Y-92396663D01*
X119920037Y-92430457D01*
X119937963Y-92489551D01*
X119967074Y-92544014D01*
X120006250Y-92591750D01*
X120053986Y-92630926D01*
X120108449Y-92660037D01*
X120167543Y-92677963D01*
X120229000Y-92684016D01*
X121579000Y-92684016D01*
X121640457Y-92677963D01*
X121699551Y-92660037D01*
X121754014Y-92630926D01*
X121801750Y-92591750D01*
X121840926Y-92544014D01*
X121870037Y-92489551D01*
X121887963Y-92430457D01*
X121894016Y-92369000D01*
X121894016Y-92148962D01*
X122270500Y-92148962D01*
X122270500Y-92255038D01*
X122291194Y-92359075D01*
X122331787Y-92457076D01*
X122390719Y-92545274D01*
X122451051Y-92605606D01*
X122451050Y-94719395D01*
X122390719Y-94779726D01*
X122331787Y-94867924D01*
X122291194Y-94965925D01*
X122270500Y-95069962D01*
X122270500Y-95176038D01*
X122291194Y-95280075D01*
X122331787Y-95378076D01*
X122390719Y-95466274D01*
X122465726Y-95541281D01*
X122553924Y-95600213D01*
X122651925Y-95640806D01*
X122755962Y-95661500D01*
X122862038Y-95661500D01*
X122966075Y-95640806D01*
X123064076Y-95600213D01*
X123152274Y-95541281D01*
X123227281Y-95466274D01*
X123286213Y-95378076D01*
X123326806Y-95280075D01*
X123347500Y-95176038D01*
X123347500Y-95069962D01*
X123326806Y-94965925D01*
X123286213Y-94867924D01*
X123227281Y-94779726D01*
X123166950Y-94719395D01*
X123166950Y-92783962D01*
X130144500Y-92783962D01*
X130144500Y-92890038D01*
X130165194Y-92994075D01*
X130205787Y-93092076D01*
X130264719Y-93180274D01*
X130325050Y-93240605D01*
X130325051Y-93934744D01*
X130264719Y-93995076D01*
X130205787Y-94083274D01*
X130165194Y-94181275D01*
X130144500Y-94285312D01*
X130144500Y-94391388D01*
X130165194Y-94495425D01*
X130205787Y-94593426D01*
X130264719Y-94681624D01*
X130339726Y-94756631D01*
X130427924Y-94815563D01*
X130525925Y-94856156D01*
X130629962Y-94876850D01*
X130736038Y-94876850D01*
X130840075Y-94856156D01*
X130938076Y-94815563D01*
X131026274Y-94756631D01*
X131101281Y-94681624D01*
X131160213Y-94593426D01*
X131200806Y-94495425D01*
X131221500Y-94391388D01*
X131221500Y-94285312D01*
X131200806Y-94181275D01*
X131160213Y-94083274D01*
X131101281Y-93995076D01*
X131040950Y-93934745D01*
X131040950Y-93240605D01*
X131101281Y-93180274D01*
X131160213Y-93092076D01*
X131200806Y-92994075D01*
X131221500Y-92890038D01*
X131221500Y-92783962D01*
X131200806Y-92679925D01*
X131160213Y-92581924D01*
X131101281Y-92493726D01*
X131026274Y-92418719D01*
X130938076Y-92359787D01*
X130840075Y-92319194D01*
X130736038Y-92298500D01*
X130629962Y-92298500D01*
X130525925Y-92319194D01*
X130427924Y-92359787D01*
X130339726Y-92418719D01*
X130264719Y-92493726D01*
X130205787Y-92581924D01*
X130165194Y-92679925D01*
X130144500Y-92783962D01*
X123166950Y-92783962D01*
X123166950Y-92605605D01*
X123227281Y-92545274D01*
X123286213Y-92457076D01*
X123326806Y-92359075D01*
X123347500Y-92255038D01*
X123347500Y-92148962D01*
X123326806Y-92044925D01*
X123286213Y-91946924D01*
X123227281Y-91858726D01*
X123152274Y-91783719D01*
X123064076Y-91724787D01*
X122966075Y-91684194D01*
X122862038Y-91663500D01*
X122755962Y-91663500D01*
X122651925Y-91684194D01*
X122553924Y-91724787D01*
X122465726Y-91783719D01*
X122390719Y-91858726D01*
X122331787Y-91946924D01*
X122291194Y-92044925D01*
X122270500Y-92148962D01*
X121894016Y-92148962D01*
X121894016Y-91019000D01*
X121887963Y-90957543D01*
X121870037Y-90898449D01*
X121840926Y-90843986D01*
X121801750Y-90796250D01*
X121754014Y-90757074D01*
X121699551Y-90727963D01*
X121640457Y-90710037D01*
X121579000Y-90703984D01*
X120229000Y-90703984D01*
X120167543Y-90710037D01*
X120108449Y-90727963D01*
X120053986Y-90757074D01*
X120006250Y-90796250D01*
X119967074Y-90843986D01*
X119937963Y-90898449D01*
X119920037Y-90957543D01*
X119916709Y-90991337D01*
X119840332Y-90883313D01*
X119664183Y-90716221D01*
X119516438Y-90617523D01*
X119340500Y-90686901D01*
X118467500Y-90686901D01*
X118291562Y-90617523D01*
X118143817Y-90716221D01*
X117967668Y-90883313D01*
X117827502Y-91081559D01*
X117128289Y-91081559D01*
X116858237Y-90280074D01*
X116850289Y-90243962D01*
X125953500Y-90243962D01*
X125953500Y-90350038D01*
X125974194Y-90454075D01*
X126014787Y-90552076D01*
X126073719Y-90640274D01*
X126100120Y-90666675D01*
X126073719Y-90693076D01*
X126014787Y-90781274D01*
X125974194Y-90879275D01*
X125953500Y-90983312D01*
X125953500Y-91089388D01*
X125974194Y-91193425D01*
X126014787Y-91291426D01*
X126073719Y-91379624D01*
X126148726Y-91454631D01*
X126236924Y-91513563D01*
X126334925Y-91554156D01*
X126438962Y-91574850D01*
X126545038Y-91574850D01*
X126649075Y-91554156D01*
X126747076Y-91513563D01*
X126835274Y-91454631D01*
X126910281Y-91379624D01*
X126969213Y-91291426D01*
X127009806Y-91193425D01*
X127030500Y-91089388D01*
X127030500Y-90983312D01*
X127009806Y-90879275D01*
X126969213Y-90781274D01*
X126910281Y-90693076D01*
X126883880Y-90666675D01*
X126910281Y-90640274D01*
X126969213Y-90552076D01*
X127009806Y-90454075D01*
X127030500Y-90350038D01*
X127030500Y-90243962D01*
X127009806Y-90139925D01*
X126969213Y-90041924D01*
X126910281Y-89953726D01*
X126835274Y-89878719D01*
X126747076Y-89819787D01*
X126649075Y-89779194D01*
X126545038Y-89758500D01*
X126438962Y-89758500D01*
X126334925Y-89779194D01*
X126236924Y-89819787D01*
X126148726Y-89878719D01*
X126073719Y-89953726D01*
X126014787Y-90041924D01*
X125974194Y-90139925D01*
X125953500Y-90243962D01*
X116850289Y-90243962D01*
X116551883Y-88888294D01*
X116547388Y-88846962D01*
X121299500Y-88846962D01*
X121299500Y-88953038D01*
X121320194Y-89057075D01*
X121360787Y-89155076D01*
X121419719Y-89243274D01*
X121494726Y-89318281D01*
X121582924Y-89377213D01*
X121680925Y-89417806D01*
X121784962Y-89438500D01*
X121891038Y-89438500D01*
X121995075Y-89417806D01*
X122093076Y-89377213D01*
X122181274Y-89318281D01*
X122241605Y-89257950D01*
X122650427Y-89257950D01*
X122668000Y-89259681D01*
X122685573Y-89257950D01*
X122685575Y-89257950D01*
X122738170Y-89252770D01*
X122805644Y-89232302D01*
X122867828Y-89199064D01*
X122922333Y-89154333D01*
X122933541Y-89140676D01*
X123367586Y-88706632D01*
X123381232Y-88695433D01*
X123392432Y-88681786D01*
X123392436Y-88681782D01*
X123425964Y-88640929D01*
X123459202Y-88578744D01*
X123479670Y-88511271D01*
X123486581Y-88441100D01*
X123484850Y-88423525D01*
X123484850Y-88304368D01*
X123569924Y-88361213D01*
X123667925Y-88401806D01*
X123771962Y-88422500D01*
X123857283Y-88422500D01*
X124356050Y-88921268D01*
X124356050Y-89004395D01*
X124295719Y-89064726D01*
X124236787Y-89152924D01*
X124196194Y-89250925D01*
X124175500Y-89354962D01*
X124175500Y-89461038D01*
X124196194Y-89565075D01*
X124236787Y-89663076D01*
X124295719Y-89751274D01*
X124370726Y-89826281D01*
X124458924Y-89885213D01*
X124556925Y-89925806D01*
X124660962Y-89946500D01*
X124767038Y-89946500D01*
X124871075Y-89925806D01*
X124969076Y-89885213D01*
X125057274Y-89826281D01*
X125132281Y-89751274D01*
X125142512Y-89735962D01*
X131414500Y-89735962D01*
X131414500Y-89842038D01*
X131435194Y-89946075D01*
X131475787Y-90044076D01*
X131534719Y-90132274D01*
X131609726Y-90207281D01*
X131697924Y-90266213D01*
X131795925Y-90306806D01*
X131899962Y-90327500D01*
X132006038Y-90327500D01*
X132110075Y-90306806D01*
X132208076Y-90266213D01*
X132296274Y-90207281D01*
X132356605Y-90146950D01*
X134089395Y-90146950D01*
X134149726Y-90207281D01*
X134237924Y-90266213D01*
X134335925Y-90306806D01*
X134439962Y-90327500D01*
X134546038Y-90327500D01*
X134650075Y-90306806D01*
X134748076Y-90266213D01*
X134836274Y-90207281D01*
X134911281Y-90132274D01*
X134970213Y-90044076D01*
X135010806Y-89946075D01*
X135031500Y-89842038D01*
X135031500Y-89735962D01*
X135010806Y-89631925D01*
X134970213Y-89533924D01*
X134911281Y-89445726D01*
X134836274Y-89370719D01*
X134748076Y-89311787D01*
X134650075Y-89271194D01*
X134546038Y-89250500D01*
X134439962Y-89250500D01*
X134335925Y-89271194D01*
X134237924Y-89311787D01*
X134149726Y-89370719D01*
X134089395Y-89431050D01*
X132356605Y-89431050D01*
X132296274Y-89370719D01*
X132208076Y-89311787D01*
X132110075Y-89271194D01*
X132006038Y-89250500D01*
X131899962Y-89250500D01*
X131795925Y-89271194D01*
X131697924Y-89311787D01*
X131609726Y-89370719D01*
X131534719Y-89445726D01*
X131475787Y-89533924D01*
X131435194Y-89631925D01*
X131414500Y-89735962D01*
X125142512Y-89735962D01*
X125191213Y-89663076D01*
X125231806Y-89565075D01*
X125252500Y-89461038D01*
X125252500Y-89354962D01*
X125231806Y-89250925D01*
X125191213Y-89152924D01*
X125132281Y-89064726D01*
X125071950Y-89004395D01*
X125071950Y-88790575D01*
X125073681Y-88773000D01*
X125066770Y-88702829D01*
X125046302Y-88635356D01*
X125027904Y-88600936D01*
X125013064Y-88573172D01*
X124991774Y-88547230D01*
X124979536Y-88532318D01*
X124979532Y-88532314D01*
X124968332Y-88518667D01*
X124954686Y-88507468D01*
X124363500Y-87916283D01*
X124363500Y-87830962D01*
X124342806Y-87726925D01*
X124302213Y-87628924D01*
X124243281Y-87540726D01*
X124168274Y-87465719D01*
X124080076Y-87406787D01*
X124005749Y-87376000D01*
X124080076Y-87345213D01*
X124168274Y-87286281D01*
X124243281Y-87211274D01*
X124302213Y-87123076D01*
X124342806Y-87025075D01*
X124363500Y-86921038D01*
X124363500Y-86814962D01*
X124342806Y-86710925D01*
X124302213Y-86612924D01*
X124243281Y-86524726D01*
X124168274Y-86449719D01*
X124080076Y-86390787D01*
X123982075Y-86350194D01*
X123878038Y-86329500D01*
X123771962Y-86329500D01*
X123667925Y-86350194D01*
X123569924Y-86390787D01*
X123481726Y-86449719D01*
X123406719Y-86524726D01*
X123347787Y-86612924D01*
X123307194Y-86710925D01*
X123286500Y-86814962D01*
X123286500Y-86900282D01*
X122886219Y-87300564D01*
X122872568Y-87311767D01*
X122861365Y-87325418D01*
X122861364Y-87325419D01*
X122827837Y-87366272D01*
X122794598Y-87428457D01*
X122774131Y-87495930D01*
X122767219Y-87566100D01*
X122768951Y-87583683D01*
X122768950Y-88292832D01*
X122519733Y-88542050D01*
X122241605Y-88542050D01*
X122181274Y-88481719D01*
X122093076Y-88422787D01*
X121995075Y-88382194D01*
X121891038Y-88361500D01*
X121784962Y-88361500D01*
X121680925Y-88382194D01*
X121582924Y-88422787D01*
X121494726Y-88481719D01*
X121419719Y-88556726D01*
X121360787Y-88644924D01*
X121320194Y-88742925D01*
X121299500Y-88846962D01*
X116547388Y-88846962D01*
X116397802Y-87471549D01*
X116397802Y-86046451D01*
X116551883Y-84629706D01*
X116825651Y-83385962D01*
X135097500Y-83385962D01*
X135097500Y-83492038D01*
X135118194Y-83596075D01*
X135158787Y-83694076D01*
X135217719Y-83782274D01*
X135278051Y-83842606D01*
X135278050Y-85575395D01*
X135217719Y-85635726D01*
X135158787Y-85723924D01*
X135118194Y-85821925D01*
X135097500Y-85925962D01*
X135097500Y-86032038D01*
X135118194Y-86136075D01*
X135158787Y-86234076D01*
X135217719Y-86322274D01*
X135292726Y-86397281D01*
X135380924Y-86456213D01*
X135478925Y-86496806D01*
X135582962Y-86517500D01*
X135689038Y-86517500D01*
X135793075Y-86496806D01*
X135891076Y-86456213D01*
X135979274Y-86397281D01*
X136054281Y-86322274D01*
X136113213Y-86234076D01*
X136153806Y-86136075D01*
X136174500Y-86032038D01*
X136174500Y-85925962D01*
X136153806Y-85821925D01*
X136113213Y-85723924D01*
X136054281Y-85635726D01*
X135993950Y-85575395D01*
X135993950Y-83842605D01*
X136054281Y-83782274D01*
X136113213Y-83694076D01*
X136153806Y-83596075D01*
X136174500Y-83492038D01*
X136174500Y-83385962D01*
X136153806Y-83281925D01*
X136113213Y-83183924D01*
X136054281Y-83095726D01*
X135979274Y-83020719D01*
X135891076Y-82961787D01*
X135793075Y-82921194D01*
X135689038Y-82900500D01*
X135582962Y-82900500D01*
X135478925Y-82921194D01*
X135380924Y-82961787D01*
X135292726Y-83020719D01*
X135217719Y-83095726D01*
X135158787Y-83183924D01*
X135118194Y-83281925D01*
X135097500Y-83385962D01*
X116825651Y-83385962D01*
X116858237Y-83237926D01*
X117193479Y-82242962D01*
X123286500Y-82242962D01*
X123286500Y-82349038D01*
X123307194Y-82453075D01*
X123347787Y-82551076D01*
X123406719Y-82639274D01*
X123481726Y-82714281D01*
X123569924Y-82773213D01*
X123667925Y-82813806D01*
X123771962Y-82834500D01*
X123878038Y-82834500D01*
X123982075Y-82813806D01*
X124080076Y-82773213D01*
X124168274Y-82714281D01*
X124243281Y-82639274D01*
X124302213Y-82551076D01*
X124342806Y-82453075D01*
X124363500Y-82349038D01*
X124363500Y-82263717D01*
X124693868Y-81933350D01*
X125011435Y-81933350D01*
X125071766Y-81993681D01*
X125159964Y-82052613D01*
X125257965Y-82093206D01*
X125362002Y-82113900D01*
X125468078Y-82113900D01*
X125572115Y-82093206D01*
X125670116Y-82052613D01*
X125758314Y-81993681D01*
X125833321Y-81918674D01*
X125892253Y-81830476D01*
X125932846Y-81732475D01*
X125953540Y-81628438D01*
X125953540Y-81522362D01*
X125932846Y-81418325D01*
X125892253Y-81320324D01*
X125833321Y-81232126D01*
X125758314Y-81157119D01*
X125670116Y-81098187D01*
X125572115Y-81057594D01*
X125468078Y-81036900D01*
X125362002Y-81036900D01*
X125257965Y-81057594D01*
X125159964Y-81098187D01*
X125071766Y-81157119D01*
X125011435Y-81217450D01*
X124563165Y-81217450D01*
X124545599Y-81215720D01*
X124528034Y-81217450D01*
X124528025Y-81217450D01*
X124475430Y-81222630D01*
X124407956Y-81243098D01*
X124345772Y-81276336D01*
X124291267Y-81321067D01*
X124280064Y-81334719D01*
X123857283Y-81757500D01*
X123771962Y-81757500D01*
X123667925Y-81778194D01*
X123569924Y-81818787D01*
X123481726Y-81877719D01*
X123406719Y-81952726D01*
X123347787Y-82040924D01*
X123307194Y-82138925D01*
X123286500Y-82242962D01*
X117193479Y-82242962D01*
X117313273Y-81887427D01*
X117911656Y-80594042D01*
X118315408Y-79923000D01*
X119440773Y-79923000D01*
X119451653Y-80033465D01*
X119483874Y-80139686D01*
X119536199Y-80237579D01*
X119606617Y-80323383D01*
X119692421Y-80393801D01*
X119790314Y-80446126D01*
X119896535Y-80478347D01*
X120007000Y-80489227D01*
X120049846Y-80488030D01*
X119979644Y-80545644D01*
X119856116Y-80696162D01*
X119764327Y-80867887D01*
X119707804Y-81054220D01*
X119688718Y-81248000D01*
X119707804Y-81441780D01*
X119764327Y-81628113D01*
X119856116Y-81799838D01*
X119979644Y-81950356D01*
X120130162Y-82073884D01*
X120301887Y-82165673D01*
X120488220Y-82222196D01*
X120633448Y-82236500D01*
X120730552Y-82236500D01*
X120875780Y-82222196D01*
X121062113Y-82165673D01*
X121233838Y-82073884D01*
X121384356Y-81950356D01*
X121507884Y-81799838D01*
X121599673Y-81628113D01*
X121656196Y-81441780D01*
X121675282Y-81248000D01*
X121688718Y-81248000D01*
X121707804Y-81441780D01*
X121764327Y-81628113D01*
X121856116Y-81799838D01*
X121979644Y-81950356D01*
X122130162Y-82073884D01*
X122301887Y-82165673D01*
X122488220Y-82222196D01*
X122633448Y-82236500D01*
X122730552Y-82236500D01*
X122875780Y-82222196D01*
X123062113Y-82165673D01*
X123233838Y-82073884D01*
X123384356Y-81950356D01*
X123507884Y-81799838D01*
X123599673Y-81628113D01*
X123656196Y-81441780D01*
X123675282Y-81248000D01*
X123656196Y-81054220D01*
X123599673Y-80867887D01*
X123507884Y-80696162D01*
X123384356Y-80545644D01*
X123233838Y-80422116D01*
X123062113Y-80330327D01*
X122875780Y-80273804D01*
X122730552Y-80259500D01*
X122633448Y-80259500D01*
X122488220Y-80273804D01*
X122301887Y-80330327D01*
X122130162Y-80422116D01*
X121979644Y-80545644D01*
X121856116Y-80696162D01*
X121764327Y-80867887D01*
X121707804Y-81054220D01*
X121688718Y-81248000D01*
X121675282Y-81248000D01*
X121656196Y-81054220D01*
X121599673Y-80867887D01*
X121507884Y-80696162D01*
X121384356Y-80545644D01*
X121314154Y-80488030D01*
X121357000Y-80489227D01*
X121467465Y-80478347D01*
X121573686Y-80446126D01*
X121671579Y-80393801D01*
X121757383Y-80323383D01*
X121827801Y-80237579D01*
X121880126Y-80139686D01*
X121912347Y-80033465D01*
X121923227Y-79923000D01*
X121922030Y-79880154D01*
X121979644Y-79950356D01*
X122130162Y-80073884D01*
X122301887Y-80165673D01*
X122488220Y-80222196D01*
X122633448Y-80236500D01*
X122730552Y-80236500D01*
X122875780Y-80222196D01*
X123062113Y-80165673D01*
X123233838Y-80073884D01*
X123384356Y-79950356D01*
X123507884Y-79799838D01*
X123599673Y-79628113D01*
X123656196Y-79441780D01*
X123675282Y-79248000D01*
X123656196Y-79054220D01*
X123599673Y-78867887D01*
X123507884Y-78696162D01*
X123384356Y-78545644D01*
X123233838Y-78422116D01*
X123062113Y-78330327D01*
X122875780Y-78273804D01*
X122730552Y-78259500D01*
X122633448Y-78259500D01*
X122488220Y-78273804D01*
X122301887Y-78330327D01*
X122130162Y-78422116D01*
X121979644Y-78545644D01*
X121922030Y-78615846D01*
X121923227Y-78573000D01*
X121912347Y-78462535D01*
X121880126Y-78356314D01*
X121827801Y-78258421D01*
X121757383Y-78172617D01*
X121671579Y-78102199D01*
X121573686Y-78049874D01*
X121467465Y-78017653D01*
X121357000Y-78006773D01*
X121259375Y-78009500D01*
X121118500Y-78150375D01*
X121118500Y-78811500D01*
X121138500Y-78811500D01*
X121138500Y-79684500D01*
X121118500Y-79684500D01*
X121118500Y-79704500D01*
X120245500Y-79704500D01*
X120245500Y-79684500D01*
X119584375Y-79684500D01*
X119443500Y-79825375D01*
X119440773Y-79923000D01*
X118315408Y-79923000D01*
X118646371Y-79372936D01*
X119254466Y-78573000D01*
X119440773Y-78573000D01*
X119443500Y-78670625D01*
X119584375Y-78811500D01*
X120245500Y-78811500D01*
X120245500Y-78150375D01*
X120104625Y-78009500D01*
X120007000Y-78006773D01*
X119896535Y-78017653D01*
X119790314Y-78049874D01*
X119692421Y-78102199D01*
X119606617Y-78172617D01*
X119536199Y-78258421D01*
X119483874Y-78356314D01*
X119451653Y-78462535D01*
X119440773Y-78573000D01*
X119254466Y-78573000D01*
X119508804Y-78238425D01*
X120488844Y-77203810D01*
X121575000Y-76281221D01*
X122754538Y-75481474D01*
X124013630Y-74813946D01*
X125337513Y-74286463D01*
X125539500Y-74230382D01*
X125539500Y-77978000D01*
X125540720Y-77990388D01*
X125544334Y-78002300D01*
X125550202Y-78013279D01*
X125558099Y-78022901D01*
X125567721Y-78030798D01*
X125578700Y-78036666D01*
X125590612Y-78040280D01*
X125603000Y-78041500D01*
X133413500Y-78041500D01*
X133425888Y-78040280D01*
X133437800Y-78036666D01*
X133448779Y-78030798D01*
X133458401Y-78022901D01*
X133466298Y-78013279D01*
X133472166Y-78002300D01*
X133475780Y-77990388D01*
X133477000Y-77978000D01*
X133477000Y-74212751D01*
X133742487Y-74286463D01*
M02*
