G04 #@! TF.GenerationSoftware,KiCad,Pcbnew,(5.1.4)-1*
G04 #@! TF.CreationDate,2020-01-29T15:42:18+01:00*
G04 #@! TF.ProjectId,BLE-node,424c452d-6e6f-4646-952e-6b696361645f,rev?*
G04 #@! TF.SameCoordinates,Original*
G04 #@! TF.FileFunction,Soldermask,Bot*
G04 #@! TF.FilePolarity,Negative*
%FSLAX46Y46*%
G04 Gerber Fmt 4.6, Leading zero omitted, Abs format (unit mm)*
G04 Created by KiCad (PCBNEW (5.1.4)-1) date 2020-01-29 15:42:18*
%MOMM*%
%LPD*%
G04 APERTURE LIST*
%ADD10C,0.100000*%
G04 APERTURE END LIST*
D10*
G36*
X121630000Y-92420000D02*
G01*
X120178000Y-92420000D01*
X120178000Y-90968000D01*
X121630000Y-90968000D01*
X121630000Y-92420000D01*
X121630000Y-92420000D01*
G37*
G36*
X118975213Y-90971502D02*
G01*
X119046321Y-90978505D01*
X119183172Y-91020019D01*
X119183175Y-91020020D01*
X119309294Y-91087432D01*
X119419843Y-91178157D01*
X119510568Y-91288706D01*
X119577980Y-91414825D01*
X119577981Y-91414828D01*
X119619495Y-91551679D01*
X119633512Y-91694000D01*
X119619495Y-91836321D01*
X119577981Y-91973172D01*
X119577980Y-91973175D01*
X119510568Y-92099294D01*
X119419843Y-92209843D01*
X119309294Y-92300568D01*
X119183175Y-92367980D01*
X119183172Y-92367981D01*
X119046321Y-92409495D01*
X118975213Y-92416498D01*
X118939660Y-92420000D01*
X118868340Y-92420000D01*
X118832787Y-92416498D01*
X118761679Y-92409495D01*
X118624828Y-92367981D01*
X118624825Y-92367980D01*
X118498706Y-92300568D01*
X118388157Y-92209843D01*
X118297432Y-92099294D01*
X118230020Y-91973175D01*
X118230019Y-91973172D01*
X118188505Y-91836321D01*
X118174488Y-91694000D01*
X118188505Y-91551679D01*
X118230019Y-91414828D01*
X118230020Y-91414825D01*
X118297432Y-91288706D01*
X118388157Y-91178157D01*
X118498706Y-91087432D01*
X118624825Y-91020020D01*
X118624828Y-91020019D01*
X118761679Y-90978505D01*
X118832787Y-90971502D01*
X118868340Y-90968000D01*
X118939660Y-90968000D01*
X118975213Y-90971502D01*
X118975213Y-90971502D01*
G37*
G36*
X141954977Y-85318038D02*
G01*
X142203288Y-85393363D01*
X142432127Y-85515679D01*
X142632708Y-85680292D01*
X142797321Y-85880873D01*
X142919637Y-86109712D01*
X142994962Y-86358023D01*
X143021000Y-86622392D01*
X143021000Y-87113608D01*
X142994962Y-87377977D01*
X142919637Y-87626288D01*
X142797321Y-87855127D01*
X142632708Y-88055708D01*
X142432127Y-88220321D01*
X142203288Y-88342637D01*
X141954977Y-88417962D01*
X141690608Y-88444000D01*
X140849392Y-88444000D01*
X140585023Y-88417962D01*
X140336712Y-88342637D01*
X140107873Y-88220321D01*
X139907292Y-88055708D01*
X139742679Y-87855127D01*
X139620363Y-87626288D01*
X139545038Y-87377977D01*
X139519000Y-87113608D01*
X139519000Y-86622392D01*
X139545038Y-86358023D01*
X139620363Y-86109712D01*
X139742679Y-85880873D01*
X139907292Y-85680292D01*
X140107873Y-85515679D01*
X140336712Y-85393363D01*
X140585023Y-85318038D01*
X140849392Y-85292000D01*
X141690608Y-85292000D01*
X141954977Y-85318038D01*
X141954977Y-85318038D01*
G37*
G36*
X122221000Y-88119000D02*
G01*
X117619000Y-88119000D01*
X117619000Y-85617000D01*
X122221000Y-85617000D01*
X122221000Y-88119000D01*
X122221000Y-88119000D01*
G37*
G36*
X122753213Y-80525502D02*
G01*
X122824321Y-80532505D01*
X122961172Y-80574019D01*
X122961175Y-80574020D01*
X123087294Y-80641432D01*
X123197843Y-80732157D01*
X123288568Y-80842706D01*
X123355980Y-80968825D01*
X123355981Y-80968828D01*
X123397495Y-81105679D01*
X123411512Y-81248000D01*
X123397495Y-81390321D01*
X123355981Y-81527172D01*
X123355980Y-81527175D01*
X123288568Y-81653294D01*
X123197843Y-81763843D01*
X123087294Y-81854568D01*
X122961175Y-81921980D01*
X122961172Y-81921981D01*
X122824321Y-81963495D01*
X122753213Y-81970498D01*
X122717660Y-81974000D01*
X122646340Y-81974000D01*
X122610787Y-81970498D01*
X122539679Y-81963495D01*
X122402828Y-81921981D01*
X122402825Y-81921980D01*
X122276706Y-81854568D01*
X122166157Y-81763843D01*
X122075432Y-81653294D01*
X122008020Y-81527175D01*
X122008019Y-81527172D01*
X121966505Y-81390321D01*
X121952488Y-81248000D01*
X121966505Y-81105679D01*
X122008019Y-80968828D01*
X122008020Y-80968825D01*
X122075432Y-80842706D01*
X122166157Y-80732157D01*
X122276706Y-80641432D01*
X122402825Y-80574020D01*
X122402828Y-80574019D01*
X122539679Y-80532505D01*
X122610787Y-80525502D01*
X122646340Y-80522000D01*
X122717660Y-80522000D01*
X122753213Y-80525502D01*
X122753213Y-80525502D01*
G37*
G36*
X120753213Y-80525502D02*
G01*
X120824321Y-80532505D01*
X120961172Y-80574019D01*
X120961175Y-80574020D01*
X121087294Y-80641432D01*
X121197843Y-80732157D01*
X121288568Y-80842706D01*
X121355980Y-80968825D01*
X121355981Y-80968828D01*
X121397495Y-81105679D01*
X121411512Y-81248000D01*
X121397495Y-81390321D01*
X121355981Y-81527172D01*
X121355980Y-81527175D01*
X121288568Y-81653294D01*
X121197843Y-81763843D01*
X121087294Y-81854568D01*
X120961175Y-81921980D01*
X120961172Y-81921981D01*
X120824321Y-81963495D01*
X120753213Y-81970498D01*
X120717660Y-81974000D01*
X120646340Y-81974000D01*
X120610787Y-81970498D01*
X120539679Y-81963495D01*
X120402828Y-81921981D01*
X120402825Y-81921980D01*
X120276706Y-81854568D01*
X120166157Y-81763843D01*
X120075432Y-81653294D01*
X120008020Y-81527175D01*
X120008019Y-81527172D01*
X119966505Y-81390321D01*
X119952488Y-81248000D01*
X119966505Y-81105679D01*
X120008019Y-80968828D01*
X120008020Y-80968825D01*
X120075432Y-80842706D01*
X120166157Y-80732157D01*
X120276706Y-80641432D01*
X120402825Y-80574020D01*
X120402828Y-80574019D01*
X120539679Y-80532505D01*
X120610787Y-80525502D01*
X120646340Y-80522000D01*
X120717660Y-80522000D01*
X120753213Y-80525502D01*
X120753213Y-80525502D01*
G37*
G36*
X122753213Y-78525502D02*
G01*
X122824321Y-78532505D01*
X122961172Y-78574019D01*
X122961175Y-78574020D01*
X123087294Y-78641432D01*
X123197843Y-78732157D01*
X123288568Y-78842706D01*
X123355980Y-78968825D01*
X123355981Y-78968828D01*
X123397495Y-79105679D01*
X123411512Y-79248000D01*
X123397495Y-79390321D01*
X123355981Y-79527172D01*
X123355980Y-79527175D01*
X123288568Y-79653294D01*
X123197843Y-79763843D01*
X123087294Y-79854568D01*
X122961175Y-79921980D01*
X122961172Y-79921981D01*
X122824321Y-79963495D01*
X122753213Y-79970498D01*
X122717660Y-79974000D01*
X122646340Y-79974000D01*
X122610787Y-79970498D01*
X122539679Y-79963495D01*
X122402828Y-79921981D01*
X122402825Y-79921980D01*
X122276706Y-79854568D01*
X122166157Y-79763843D01*
X122075432Y-79653294D01*
X122008020Y-79527175D01*
X122008019Y-79527172D01*
X121966505Y-79390321D01*
X121952488Y-79248000D01*
X121966505Y-79105679D01*
X122008019Y-78968828D01*
X122008020Y-78968825D01*
X122075432Y-78842706D01*
X122166157Y-78732157D01*
X122276706Y-78641432D01*
X122402825Y-78574020D01*
X122402828Y-78574019D01*
X122539679Y-78532505D01*
X122610787Y-78525502D01*
X122646340Y-78522000D01*
X122717660Y-78522000D01*
X122753213Y-78525502D01*
X122753213Y-78525502D01*
G37*
G36*
X121408000Y-79974000D02*
G01*
X119956000Y-79974000D01*
X119956000Y-78522000D01*
X121408000Y-78522000D01*
X121408000Y-79974000D01*
X121408000Y-79974000D01*
G37*
M02*
